<svg xmlns="http://www.w3.org/2000/svg" width="133" height="116" viewBox="0 0 133 116" fill="none"> <rect width="133"
                                                                                                          height="116" fill="yellow" fill-opacity="0"></rect> <rect width="72.6927" height="116" fill="yellow" fill-opacity="0"></rect> <rect width="72.6927" height="116" fill="yellow" fill-opacity="0"></rect> <rect width="72.6927" height="116" fill="yellow" fill-opacity="0"></rect> <rect width="72.6927" height="116" fill="yellow" fill-opacity="0"></rect> <rect width="72.6927" height="116" fill="yellow" fill-opacity="0"></rect> <rect width="72.6927" height="116" fill="yellow" fill-opacity="0"></rect> <rect width="72.6927" height="116" fill="yellow" fill-opacity="0"></rect> <rect width="72.6927" height="116" fill="yellow" fill-opacity="0"></rect> <rect width="45.4768" height="49.257" fill="yellow" fill-opacity="0" transform="translate(72.6927 73.3399) scale(-0.999922 1.00008) rotate(-29.9974)"></rect> <rect width="29.517" height="39.8331" fill="yellow" fill-opacity="0" transform="translate(55.4467 63.3809) scale(-0.999922 1.00008)"></rect> <path fill-rule="evenodd" clip-rule="evenodd" d="M29.343 76.6097C29.3989 76.8806 29.4599 77.1027 29.526 77.276C29.9874 78.4851 30.2181 79.7934 30.2181 81.201L30.6631 78.8105C31.1431 75.345 31.7267 72.9524 32.4139 71.6329C33.1011 70.3134 33.4527 69.3823 33.4688 68.8397L33.7461 65.9124L32.8927 66.5232C32.6943 67.9508 32.3341 69.5112 31.8122 71.2043C31.2903 72.8975 30.7589 74.7785 30.2181 76.8472C29.951 72.6934 29.8175 70.0242 29.8175 68.8397C29.8175 67.6552 29.8175 66.7757 29.8175 66.2012L28.8937 66.5232C28.8934 66.5684 28.8931 66.6135 28.8928 66.6584L27.6675 66.5232C25.9844 72.8801 25.5255 78.6058 26.291 83.7003C27.4392 91.3421 29.6271 95.5607 30.4308 92.7338C30.9666 90.8493 31.3721 88.8839 31.6474 86.8378C31.5007 87.6452 31.9086 90.0457 32.8712 94.0394C33.8338 98.033 36.4933 101.092 40.8496 103.217C40.4633 102.423 39.689 100.6 38.5266 97.7479C36.7829 93.4693 37.4154 86.7528 37.4154 88.0489C37.4154 89.3451 39.3941 91.2183 39.3941 90.2982C39.3941 89.6847 39.3941 88.935 39.3941 88.0489C39.2917 88.4672 39.7768 89.5237 40.8496 91.2183C41.9223 92.913 43.9257 94.3604 46.8596 95.5607C46.3275 94.7236 45.8079 93.6103 45.3009 92.221C44.794 90.8317 44.443 89.2344 44.2481 87.4291C44.4549 87.6536 44.9313 88.2999 45.6771 89.3681C46.423 90.4363 47.2483 91.3873 48.1533 92.221C47.8711 90.2489 47.7301 88.0333 47.7301 85.574C47.7301 83.1148 48.3104 80.8181 49.4712 78.6839L49.3956 78.3541C49.6994 79.003 50.0842 79.5935 50.55 80.1257C52.1002 81.8964 53.7324 83.1323 55.4467 83.8331C55.0368 83.5212 54.5405 82.6504 53.9578 81.2208C53.3751 79.7911 53.1263 78.1903 53.2115 76.4182C52.4 73.4476 51.9943 73.214 51.9943 75.7174C51.9943 78.2208 52.4 80.0553 53.2115 81.2208C52.4 80.4907 51.6593 79.5349 50.9893 78.3535C50.3193 77.172 50.011 75.5968 50.0642 73.6279L48.8178 72.9896C48.9306 72.8581 49.0435 72.7329 49.1567 72.614L48.1909 71.9246C47.3657 72.7647 46.6826 74.1372 46.1415 76.0421C45.6004 77.947 45.4258 79.903 45.6176 81.9103C46.0584 78.5858 46.5962 76.3758 47.2308 75.2805C47.6715 74.5199 48.1158 73.8588 48.5636 73.2973C48.4983 74.5129 48.58 75.6226 48.8088 76.6264C48.5978 76.9602 48.2382 77.8817 47.7301 79.3911C46.8721 81.9397 46.5819 85.0001 46.8596 88.5724C46.8596 89.1029 46.3401 88.5247 45.3009 86.8378C44.6648 85.805 44.2258 84.5469 43.9839 83.0632L44.1006 82.9558C44.0208 81.5238 44.135 79.8668 44.4433 77.9845C44.7516 76.1023 45.5889 73.9061 46.9552 71.3959L46.5437 70.026C45.8621 70.3149 45.1619 71.7035 44.4433 74.1916C43.8086 76.389 43.4237 79.1286 43.2886 82.4103C43.2092 83.0104 43.1299 83.7065 43.0506 84.4985C42.8142 86.8611 43.2134 89.6062 44.2481 92.7338C43.2942 92.1548 42.1614 90.8895 40.8496 88.938C40.3864 88.2489 40.0361 87.4281 39.7657 86.5973C39.8503 86.7431 39.9414 86.8833 40.039 87.018C39.4877 85.9226 39.212 84.6385 39.212 83.1658C39.212 81.693 39.8853 79.2831 41.2319 75.9359C41.2319 77.4668 41.2319 78.8283 41.2319 80.0202C41.2319 81.2121 41.3992 83.1744 41.7337 85.9068C41.7363 80.3758 41.9679 76.6058 42.4286 74.597C42.8893 72.5882 43.7691 70.6429 45.0681 68.7612L45.0681 67.4945C41.7154 73.1221 39.7633 77.4023 39.212 80.335C39.0323 81.2911 38.9405 82.1723 38.9365 82.9785C38.7785 82.1057 38.6884 81.7252 38.5266 82.351C38.1014 83.9955 38.9518 88.938 38.1715 88.0489C37.6513 87.4562 37.1902 86.2728 36.7882 84.4985C35.9678 86.4522 35.6848 88.9078 35.9393 91.8653C36.1938 94.8227 36.7773 97.476 37.6899 99.8251C37.1559 99.4478 36.5723 98.9247 35.9393 98.2559C34.9898 97.2528 33.6523 93.6039 32.8712 88.938C32.3505 85.8274 32.4988 80.5209 33.3161 73.0186C32.2036 77.4021 31.4603 81.1097 31.0861 84.1415C30.7119 87.1734 30.2216 89.748 29.615 91.8653C28.167 90.2005 27.3225 86.2364 27.0816 79.973C26.8626 74.2809 27.4653 70.1098 28.8894 67.46C28.8803 71.4852 28.9958 74.3281 29.2362 75.9886C28.6357 79.3034 28.3355 81.6347 28.3355 82.9826C28.3355 84.4082 28.6714 85.6167 29.343 86.6082C29.343 84.2138 29.343 82.127 29.343 80.3479C29.343 78.5688 29.343 77.5665 29.343 77.341L29.343 76.6097ZM36.4705 79.4014C35.1308 81.9389 34.4609 84.262 34.4609 86.3707C34.4609 88.5342 34.6064 90.4127 34.8973 92.0059C34.8894 87.6141 35.1101 84.8752 35.5594 83.7893C35.9627 82.815 36.2771 82.0916 36.5026 81.6191C36.546 82.5314 36.6263 83.4625 36.7434 84.4126C36.7212 81.75 36.8583 79.0706 37.1547 76.3743C37.4511 73.6779 38.9358 69.56 41.6086 64.0203L41.2319 63.5735C39.2667 67.0799 37.9076 70.459 37.1547 73.7109C36.7379 75.5111 36.5098 77.4079 36.4705 79.4014ZM43.8101 64.7204L43.8101 63.3809C42.0446 66.8348 40.6799 69.3745 39.7162 71.0002C38.2705 73.4386 38.9476 76.5489 39.0112 77.2826C39.0749 78.0163 38.9914 76.6354 39.9318 73.4863C40.5587 71.3868 41.8515 68.4649 43.8101 64.7204ZM39.1462 64.9205C39.4685 63.66 38.9869 63.9906 37.7016 65.9124C36.4163 67.8341 35.5659 71.7055 35.1505 77.5265C34.956 77.1843 34.7433 75.8755 34.5125 73.6002C34.2817 71.325 34.3971 68.7826 34.8588 65.9732L33.8385 65.9732C33.4981 68.9857 33.4981 71.6311 33.8385 73.9092C34.1788 76.1872 34.6161 77.9884 35.1505 79.3125C35.3659 78.2431 35.688 76.5397 36.1167 74.2023C36.5454 71.8648 37.5552 68.7709 39.1462 64.9205Z" fill="yellow"></path> <rect width="49.4442" height="56.9596" fill="yellow" fill-opacity="0" transform="translate(0 9.88049)"></rect> <rect width="49.4442" height="56.9596" fill="yellow" fill-opacity="0" transform="translate(0 9.88049)"></rect> <path fill-rule="evenodd" clip-rule="evenodd" d="M20.8073 52.6633C21.1781 53.1627 21.0668 53.4124 20.4733 53.4124C19.8798 53.4124 18.806 53.1627 17.2519 52.6633C17.0202 52.5764 16.9989 52.3893 17.188 52.102C17.377 51.8147 17.7761 51.2905 18.3852 50.5292C18.5818 50.2984 18.7763 50.2984 18.9685 50.5292C19.1608 50.76 19.7737 51.4714 20.8073 52.6633Z" fill="yellow"></path> <path fill-rule="evenodd" clip-rule="evenodd" d="M13.7568 50.2732C13.3963 50.3809 12.3192 50.3827 13.038 49.8205C13.7568 49.2583 15.1789 48.1297 15.1789 47.4058C15.1789 46.6818 14.4403 46.1792 15.021 45.7746C15.6017 45.3699 17.6073 43.4566 18.2672 41.5718C18.927 39.687 18.8666 38.2388 18.8666 37.7217C18.8666 37.2046 18.4792 37.307 18.1864 37.5648C17.8937 37.8226 16.3383 39.181 15.5989 39.9273C14.8595 40.6736 14.4742 41.1618 14.6668 39.9912C14.8595 38.8207 16.4172 35.4733 17.3018 34.0771C18.1864 32.6809 19.68 31.013 19.894 31.013C20.1081 31.013 19.982 31.847 19.5666 32.5932C19.1512 33.3393 18.3286 34.7459 18.7399 35.0937C19.1512 35.4415 20.2246 34.1387 20.5628 33.8294C20.901 33.5201 21.8012 32.474 22.1287 33.4592C22.4562 34.4444 22.4226 38.7101 22.2757 39.5849C22.1287 40.4597 21.3819 42.3813 21.0444 42.0865C20.707 41.7917 20.1865 40.603 20.107 41.6409C20.0276 42.6788 18.5619 44.0169 18.0762 44.3569C17.5906 44.697 17.1049 44.7934 17.5906 44.8743C18.0762 44.9552 18.6698 44.9388 18.0762 45.485C17.4826 46.0311 17.1879 46.5161 16.7909 46.7779C16.6218 46.8894 16.7413 48.0256 15.9621 48.9464C15.5221 49.4663 14.1172 50.1654 13.7568 50.2732Z" fill="yellow"></path> <path fill-rule="evenodd" clip-rule="evenodd" d="M14.9377 35.8351C14.7048 36.118 14.2689 36.573 14.2689 35.2298C14.2689 33.8865 15.0467 32.4354 17.1208 30.1487C19.1949 27.862 20.6713 25.37 20.8405 24.6253C21.0097 23.8806 21.0556 23.2105 20.6628 23.6103C20.401 23.8768 19.6251 24.595 18.3351 25.7651C17.8222 25.8003 17.9087 25.4203 18.5946 24.6253C19.6235 23.4327 20.2991 22.3396 20.2991 21.7444C20.2991 21.1491 20.5612 21.1448 21.0431 21.3028C21.3644 21.4081 22.0563 21.8024 23.1187 22.4856C23.5267 22.6818 23.5841 23.1834 23.2908 23.9905C22.8509 25.2012 21.8135 28.11 21.6021 28.3829C21.3907 28.6558 21.0431 29.2026 21.0431 28.7928C21.0431 28.3829 20.4569 28.4975 19.7565 29.1115C19.0561 29.7256 16.6585 31.5156 15.7981 33.3727C14.9377 35.2298 15.1707 35.5522 14.9377 35.8351Z" fill="yellow"></path> <path fill-rule="evenodd" clip-rule="evenodd" d="M9.37648 51.2336C9.60146 51.051 9.92311 50.6817 8.95383 50.6817C7.98455 50.6817 5.69905 50.0188 4.84924 48.9592C3.99943 47.8996 3.40843 47.5098 3.40843 48.2345C3.40843 48.9592 2.73217 49.6839 2.73217 48.9592C2.73217 48.2345 2.398 47.6707 2.12225 48.5372C1.8465 49.4037 1.75751 50.6978 2.12225 51.5548C2.48699 52.4119 3.40843 52.8997 3.40843 52.323C3.40843 51.7464 3.65136 51.365 4.04414 51.7666C4.43692 52.1682 5.27536 52.5215 6.75342 52.5215C8.23147 52.5215 7.3834 52.1582 7.06841 52.1582C6.75342 52.1582 6.44337 51.9784 7.61651 51.7666C8.78965 51.5548 9.1515 51.4161 9.37648 51.2336Z" fill="yellow"></path> <path fill-rule="evenodd" clip-rule="evenodd" d="M6.20004 54.2988C5.97605 54.4459 6.78924 56.5426 8.93225 56.9804C10.3609 57.2723 11.1343 57.4182 11.2524 57.4182C13.7429 59.4012 15.7317 60.836 17.2186 61.7227C19.4491 63.0528 21.2957 64.3809 26.3233 64.7605C29.6751 65.0136 34.0283 64.3849 39.3829 62.8745L42.3154 61.7227C42.7127 61.5193 42.3569 61.0376 41.2479 60.2776C39.5844 59.1377 37.5362 58.4756 36.0686 58.4756C34.601 58.4756 34.1595 58.6107 34.3068 59.2177C34.4541 59.8246 34.1043 61.4481 30.9046 61.922C27.705 62.3959 22.5281 62.8389 16.7552 59.2177C12.9066 56.8035 10.7029 55.7735 10.1443 56.1275C7.66412 54.8104 6.34937 54.2008 6.20004 54.2988Z" fill="yellow"></path> <path fill-rule="evenodd" clip-rule="evenodd" d="M40.3828 21.3132C39.7241 22.5788 38.5264 23.9679 37.4204 23.9679C36.3252 23.9679 35.0689 23.5589 33.9829 23.2057C33.4483 23.0316 32.9551 22.8711 32.543 22.7795C32.0127 22.6617 31.6919 22.6871 31.3291 22.7158C30.8379 22.7547 30.2705 22.7997 29.002 22.5019C26.7984 21.9847 25.9165 21.8916 25.357 22.5019C25.1138 22.7677 25.0396 23.383 24.9444 24.1687C24.8218 25.1877 24.6641 26.4933 24.0581 27.6943L23.9453 27.9178C22.9585 29.8692 22.6265 30.5256 23.2783 31.8819C23.9546 33.2889 24.0581 34.5428 24.0581 36.8623C24.0581 37.3512 24.0391 37.7568 24.0235 38.0834C23.9658 39.3061 23.9605 39.4195 25.2119 38.639C25.5171 38.4487 25.8472 38.1971 26.2085 37.9217C27.7251 36.7656 29.7959 35.1871 32.9243 35.9355C34.3491 36.2763 35.2661 36.5825 35.9175 36.8C37.0376 37.1741 37.3731 37.286 38.1558 36.8623C38.5923 36.6261 39.2119 36.2449 39.8535 35.8501C41.0332 35.1246 42.2866 34.3535 42.6128 34.3535C42.9488 34.3535 43.6192 34.0984 44.6245 33.5881C46.4658 34.6521 47.8487 36.8124 48.7735 40.0691C50.1602 44.954 49.3179 49.9975 46.9712 52.7992C44.6245 55.6008 42.4859 55.919 41.3345 55.919C40.1831 55.919 38.9229 55.4936 41.3345 54.8507C43.7461 54.2077 45.5215 52.4875 45.9873 51.8115C46.4531 51.1355 45.7241 51.0051 43.7461 51.0703C42.9688 51.0959 42.2539 51.4894 41.333 51.9961C39.9097 52.7794 37.9942 53.8335 34.5967 54.2178C30.8672 54.6398 27.69 54.1669 25.0659 52.7992C24.1714 51.8115 24.2686 51.4822 25.357 51.8115C25.5645 51.8742 25.7901 51.9527 26.0371 52.0388C27.7324 52.6289 30.4468 53.5736 35.4297 52.2436C39.2354 51.2278 42.0073 49.8037 43.7461 47.9713C43.8823 46.1745 43.5044 44.6465 42.6128 43.3872C41.2749 41.4983 41.8965 41.4837 42.6128 42.0527C43.3291 42.6216 44.5449 43.7809 44.9898 45.5515C45.4346 47.322 45.6841 45.6908 45.5596 44.5389C45.4761 43.7711 44.7949 42.7971 43.5161 41.6169C42.98 41.4867 43.0567 41.2048 43.7461 40.7712C44.4351 40.3377 45.3374 39.6269 46.4531 38.639C46.6074 38.3362 46.4522 38.3362 45.9873 38.639C45.2896 39.0931 44.48 38.9703 45.3921 38.1648C45.5977 37.9835 45.7793 37.8508 45.9287 37.7417C46.4434 37.3658 46.5772 37.2682 45.9873 36.4198L45.878 36.2621C45.2207 35.3121 45.1421 35.1981 43.7461 35.435C42.7661 35.6014 41.1333 36.3397 38.8477 37.65C37.9922 38.0198 37.833 38.3493 38.3711 38.639C39.1782 39.0733 40.0947 40.0691 39.7193 40.0691C39.5073 40.0691 38.855 39.6501 38.1861 39.2201C37.6685 38.8876 37.1406 38.5483 36.7984 38.3915C36.6582 38.3274 36.482 38.2298 36.273 38.1144C35.3101 37.5819 33.6529 36.6658 31.6636 36.8623C29.2422 37.1017 27.124 38.1554 25.0659 40.7712C23.6934 42.5152 22.8755 43.9996 22.6123 45.2243C22.1504 46.0886 21.9702 45.9985 22.0718 44.954C22.1548 44.1025 22.2442 43.8536 22.1978 43.8249C22.1587 43.8008 22.0239 43.9321 21.708 43.9923C21.0166 44.124 20.0327 43.7639 20.6885 43.5296C21.3438 43.2954 22.7168 41.8835 23.0982 40.4275C23.3843 39.3346 23.3423 38.218 23.3037 37.1871C23.291 36.8446 23.2783 36.5116 23.2783 36.192C23.2783 34.9106 23.0479 33.3202 22.6123 32.4663C22.5098 32.2651 22.4292 32.0796 22.3609 31.9212C22.1382 31.4073 22.0391 31.1786 21.708 31.6245C21.2749 32.208 20.7031 32.4183 20.9893 31.6245C21.2749 30.8308 21.9463 29.397 22.6123 28.1654C23.2783 26.9338 24.2871 24.3334 24.2871 23.3981V23.2763C24.2881 22.4459 24.2881 22.2662 23.9546 21.9847C23.606 21.6899 23.8321 21.4761 24.4488 21.4761C25.0659 21.4761 24.9063 20.9352 24.2871 20.9352C23.6685 20.9352 22.3125 20.7727 21.9273 20.2248C21.6255 19.7961 22.0415 19.8937 22.5513 20.0129C22.6929 20.0461 22.8418 20.0809 22.9844 20.1067C23.6402 20.2248 25.8653 20.2192 25.9995 19.379C26.1143 18.6605 25.8858 18.6169 25.4502 18.5342C25.3765 18.5201 25.2969 18.505 25.2119 18.4853C24.6255 18.3491 24.0581 17.6837 24.0581 17.3794C24.0581 17.2026 24.2466 17.3595 24.4922 17.5643C24.6699 17.7121 24.8775 17.8849 25.0659 17.9754C25.5152 18.1914 26.1656 17.9398 26.2715 17.6596C26.377 17.3794 26.7984 17.092 26.7984 17.6596C26.7984 17.8728 26.8262 18.1262 26.856 18.395C26.9048 18.8419 26.959 19.3314 26.897 19.749C26.877 19.8834 26.8452 20.0194 26.813 20.1535C26.687 20.6877 26.5664 21.1955 27.2549 21.4761C28.1162 21.8272 28.1255 20.9352 27.6109 20.9352C27.0962 20.9352 27.2925 19.9188 27.4517 19.379C27.5923 18.9016 29.0313 18.9531 29.5401 18.9714C29.6065 18.9737 29.6572 18.9756 29.687 18.9756C29.9463 18.9756 30.0904 17.8364 29.8887 15.9745C29.687 14.1125 30.252 14.5285 30.4346 16.2519C30.6167 17.9754 30.6695 18.7373 29.8887 20.1067C29.1079 21.4761 29.1841 21.6753 29.687 21.9847C30.1905 22.2942 31.4741 22.2326 30.8321 21.9847C30.1905 21.7369 30.0366 21.6456 30.4346 20.9352C30.6997 20.4616 30.8887 19.9429 31.0015 19.379C31.2476 19.2578 31.5884 19.1971 32.0244 19.1971C32.6782 19.1971 33.3374 19.2134 33.4917 19.379C33.646 19.5448 34.0586 18.5068 34.0586 17.3794C34.0586 16.2519 34.0039 15.3443 33.7481 14.7342C33.4917 14.1241 34.0596 13.8432 34.5967 15.5028C35.1343 17.1623 34.6255 18.7373 34.0586 20.1067C33.8965 20.4984 33.7324 20.842 33.5908 21.1387C33.2378 21.8793 33.0235 22.3275 33.3252 22.5019C33.7481 22.7463 33.7481 22.4934 33.7481 21.9847C33.7481 21.4761 34.2075 19.9294 34.8184 19.5632C35.4297 19.1971 36.4131 19.379 36.4131 19.379C36.4131 19.379 35.9151 20.6778 36.1641 20.6778C36.4131 20.6778 37.1446 20.0613 37.1446 18.7203C37.1446 17.6628 36.8443 16.621 36.5957 15.7564C36.5288 15.5248 36.4658 15.3059 36.4131 15.1028C36.1641 14.1419 36.6162 14.3417 37.1446 15.7032C37.6729 17.0649 38.0449 18.6405 37.7237 19.5632C37.4566 20.3305 36.9424 20.9869 36.4551 21.6096C36.356 21.7358 36.2583 21.8607 36.1641 21.9847C35.9961 22.2057 35.8037 22.3956 35.6441 22.5532C35.2715 22.9206 35.0772 23.1124 35.7857 23.1124C36.2095 23.1124 36.3208 23.1349 36.3355 23.1069C36.356 23.068 36.189 22.9315 36.4131 22.5019L36.5249 22.2851C36.9195 21.5158 37.5269 20.3323 38.1558 20.2248C38.4654 20.172 38.6084 20.1023 38.7334 20.0412C38.8882 19.9659 39.0152 19.904 39.3946 19.904C39.6631 19.904 39.9502 19.6986 40.2007 19.5196C40.2447 19.4881 40.2876 19.4575 40.3291 19.4289C40.5435 18.893 40.3648 17.9638 39.793 16.6413C38.8301 14.4154 37.4107 12.786 36.5088 12.5676C35.772 12.3893 35.2671 11.9706 34.8203 11.5997C34.7197 11.5167 34.6226 11.436 34.5264 11.3609C34.0005 10.9508 33.4336 10.8512 33.0269 11.1061C32.855 11.2136 32.7656 11.2792 32.6665 11.2984C32.5318 11.3247 32.3794 11.2643 31.9771 11.1061C31.2808 10.8324 30.7022 10.9933 30.0796 11.3609C29.4571 11.7286 28.2739 12.1993 26.4126 12.3835C24.5513 12.5676 21.4654 13.6667 20.167 14.9111C18.8682 16.1554 18.0469 17.4249 18.4575 17.6678C18.628 17.7685 18.8506 17.7033 19.0064 17.6577C19.2266 17.5934 19.313 17.5681 18.9282 18.105C18.8491 18.2151 18.7779 18.3169 18.7105 18.4123C18.2188 19.1117 17.9644 19.4734 16.7847 20.3208C15.4439 21.2839 14.8574 21.8934 15.1509 22.2671C15.2378 22.378 15.3892 22.4143 15.5152 22.4444C15.814 22.516 15.9707 22.5534 14.7935 23.4697C14.5991 23.621 14.3648 23.7939 14.0977 23.9912C12.063 25.4936 8.12453 28.4016 5.45656 33.7762C3.09035 38.5428 3.33449 43.18 3.44631 45.3108C3.47756 45.8981 3.49807 46.2949 3.45168 46.4516C3.30959 46.9288 3.27639 46.7723 3.21096 46.4627C3.17678 46.3015 3.13381 46.0989 3.06203 45.9225L3.00881 45.7883C2.81008 45.2771 2.56301 44.6435 2.13625 45.9225C2.03127 46.238 1.88332 46.5804 1.72561 46.9448C1.18801 48.1908 0.538596 49.6942 1.10256 51.2652C1.83156 53.2958 2.56399 53.6156 3.22658 53.8636C3.43166 53.9405 3.58303 54.0382 3.69387 54.1098C3.94094 54.2695 3.98781 54.2999 3.98781 53.6824C3.98781 52.7878 4.42141 53.1896 4.73635 54.0228L4.78371 54.15C5.12649 55.0722 5.92483 57.2213 7.99709 57.7525C8.76467 57.9493 9.26809 57.9967 9.66164 58.0338C10.3833 58.1017 10.7354 58.1347 11.6675 58.9894C13.1074 60.3103 19.0044 65.1401 24.1182 65.6952C29.232 66.2502 35.5073 65.3445 38.711 64.1101C40.8462 63.2872 42.2857 62.6996 43.0288 62.347V63.609C40.458 64.9743 37.1245 65.9259 33.0269 66.4636C26.8804 67.2704 22.0581 66.8226 18.1411 64.7087C15.6533 63.3662 13.5528 61.6893 12.1372 60.5593C11.3242 59.91 10.7368 59.4414 10.4326 59.3205C10.25 59.2481 9.9634 59.1759 9.61135 59.0873C8.35305 58.7705 6.26516 58.2446 5.16262 56.7577C4.0801 55.2971 3.90627 55.2071 3.09377 54.7865C2.84719 54.6589 2.5425 54.5012 2.13625 54.2657C0.388206 53.253 -0.506326 51.676 0.297874 48.3331C0.668479 46.7939 1.09426 45.9458 1.4761 45.1856C1.92336 44.2948 2.31008 43.5248 2.47561 41.905C2.50002 41.6678 2.52346 41.4184 2.54836 41.1583C2.83694 38.1267 3.26516 33.6239 6.4053 29.6289C8.59084 26.848 10.8321 25.0578 12.2803 23.901C13.0908 23.2532 13.6533 22.8039 13.8184 22.4905L13.874 22.3846C14.3208 21.5326 14.8506 20.5231 16.0523 19.6075C17.3047 18.6538 17.7759 17.5769 17.7759 16.6413C17.7759 15.7058 18.5298 14.0293 23.126 12.5676C24.3726 12.1712 25.3223 11.8746 26.065 11.6427C28.0606 11.0193 28.5596 10.8634 29.2984 10.4961C30.312 9.99204 30.9273 9.70677 31.9771 9.99644C32.5396 10.1518 32.7681 10.2239 33.002 10.2573C33.2041 10.2862 33.4107 10.2862 33.8418 10.2862C33.9478 10.2862 34.043 10.2851 34.1294 10.284C34.8042 10.2759 34.9585 10.274 35.5181 10.8711C35.6748 11.0382 35.7989 11.1889 35.9077 11.321C36.2373 11.7214 36.4268 11.9512 36.958 11.9512C37.6646 11.9512 38.3628 12.6333 39.5396 14.1256C40.7163 15.6179 41.6133 17.8921 41.1646 18.8536C41.0244 19.1546 40.9483 19.4513 40.8892 19.7405C40.8892 19.7433 40.8892 19.7462 40.8892 19.749C40.8892 19.958 40.8321 20.2242 40.7295 20.5211C40.6592 20.7972 40.5601 21.0625 40.3828 21.3132Z" fill="yellow"></path> <rect width="44.0694" height="41.0054" fill="yellow" fill-opacity="0" transform="translate(22.0591)"></rect> <path fill-rule="evenodd" clip-rule="evenodd" d="M57.9602 6.65112C56.995 6.22369 56.995 6.00998 57.9602 6.00998C59.408 6.00998 61.2082 6.12269 62.6305 7.52685C64.0529 8.931 63.9153 14.3173 63.9153 16.0383C63.9153 17.7593 63.7638 21.3157 64.3522 23.1021C64.6649 24.0516 65.4127 25.2872 66.0447 26.6087C66.6016 27.7734 64.2038 26.7909 64.1344 26.6726C62.6305 24.1065 62.6305 21.1464 62.6305 17.8119C62.6305 14.3237 62.9493 9.82335 61.704 8.23723C60.8739 7.17982 59.6259 6.65112 57.9602 6.65112Z" fill="yellow"></path> <path fill-rule="evenodd" clip-rule="evenodd" d="M63.1266 9.04333C63.3408 6.22849 62.2367 3.74434 59.8143 1.59088C56.1807 -1.63931 49.1549 0.942497 48.2515 1.59088C47.348 2.23926 46.6257 3.09241 47.821 3.09241C49.0162 3.09241 50.9017 3.35398 51.3317 4.52166C51.6184 5.30012 51.7238 6.27423 51.6479 7.444L53.5321 7.9477C53.6832 6.03743 53.2923 4.56723 52.3593 3.53709C50.9598 1.99188 49.7637 2.17214 51.6479 1.59088C53.5321 1.00962 57.001 0.928046 59.0743 2.72485C60.4564 3.92273 61.2309 5.49577 61.3977 7.444L63.1266 9.04333Z" fill="yellow"></path> <path fill-rule="evenodd" clip-rule="evenodd" d="M58.8804 18.0488C58.667 18.2181 59.4521 19.6044 59.1663 22.2335C58.8804 24.8626 59.6612 25.4756 60.6508 26.0051C60.9305 26.1548 62.8384 26.4903 62.6217 26.2785C61.1352 24.8255 59.9919 24.3319 59.9919 21.5789C59.9919 18.826 59.0939 17.8796 58.8804 18.0488Z" fill="yellow"></path> <path fill-rule="evenodd" clip-rule="evenodd" d="M56.1945 8.96218C56.1945 8.71579 54.0821 6.59893 51.0567 7.38668C48.0314 8.17443 46.935 10.6209 47.244 11.1167C47.5531 11.6125 49.7457 10.8148 52.4134 11.1167C55.0812 11.4186 56.9125 15.0226 56.9125 17.0285C56.9125 18.785 55.8386 22.8245 56.5119 25.0278C56.6075 25.3407 58.392 25.6942 58.0996 25.1195C56.687 22.3424 58.4235 17.2849 58.156 15.0624C57.8332 12.3801 54.1088 9.67242 51.0567 9.67242C48.0046 9.67242 49.1875 9.05263 51.0567 8.36444C52.926 7.67624 56.1945 9.20857 56.1945 8.96218Z" fill="yellow"></path> <path fill-rule="evenodd" clip-rule="evenodd" d="M51.9055 7.34332C49.2616 5.85443 46.5495 5.61248 43.7692 6.61746C39.5987 8.12493 36.3695 10.3404 34.3693 10.3404C33.0359 10.3404 33.302 10.8438 35.1678 11.8506C38.5069 10.6976 41.0245 9.72417 42.7206 8.93027C45.2646 7.73942 48.9405 7.8294 49.7891 8.23926C50.3548 8.5125 51.0603 8.21386 51.9055 7.34332Z" fill="yellow"></path> <path fill-rule="evenodd" clip-rule="evenodd" d="M38.2826 12.9065C40.337 12.4747 41.838 11.9444 42.7858 11.3158C44.7006 10.0458 48.7007 8.80613 49.8427 8.48307C50.6041 8.2677 50.2597 8.55553 48.8097 9.34655L48.1741 9.97414C46.1419 10.7489 44.7358 11.4025 43.9558 11.9349C43.3529 12.3464 41.6205 12.9101 38.7587 13.6261" fill="yellow"></path> <path fill-rule="evenodd" clip-rule="evenodd" d="M43.0204 11.8558C42.2592 12.472 42.1694 12.8856 42.7508 13.0965C43.6229 13.4129 46.136 13.8822 47.3877 13.6475C48.6394 13.4129 49.5321 11.5456 50.3757 11.2236C50.9381 11.009 51.3879 10.708 51.7252 10.3208H49.4578C48.9582 11.1277 48.4319 11.7921 47.8788 12.3138C47.0492 13.0965 43.7361 12.8081 44.0856 12.0159C44.3187 11.4877 45.3065 10.8213 47.0492 10.0166L44.6246 10.3208L43.0204 11.8558Z" fill="yellow"></path> <path fill-rule="evenodd" clip-rule="evenodd" d="M47.7166 13.646V14.5155C47.4281 15.0372 47.6547 15.2058 48.3964 15.0211C49.5091 14.7441 50.4976 13.9602 52.1385 13.9602C53.7794 13.9602 55.0383 15.8832 55.0383 16.7682C55.0383 17.6532 54.6173 17.8319 54.047 18.8463C53.5177 19.7876 52.7427 20.5616 52.4411 22.6304C52.4177 22.7908 52.5994 24.1943 52.7999 22.9563C52.8514 22.6388 52.9206 22.3516 53.0076 22.0946C53.6465 20.2068 56.2695 18.3949 55.8552 16.4552C55.4409 14.5155 53.9115 13.1265 52.3798 13.1265C51.3586 13.1265 50.1964 13.2997 48.8932 13.646V12.4206L47.7166 13.646Z" fill="yellow"></path> <path fill-rule="evenodd" clip-rule="evenodd" d="M57.0005 18.8312C55.9735 19.9376 55.2194 20.9948 54.738 22.0027C54.0159 23.5146 53.7318 24.492 54.4022 23.7771C55.0727 23.0622 55.9345 21.3361 57.0005 20.873C57.7111 20.5642 57.7111 19.8836 57.0005 18.8312Z" fill="yellow"></path> <path fill-rule="evenodd" clip-rule="evenodd" d="M52.9138 20.8346C52.0747 21.5586 51.4585 22.2085 51.0654 22.7841C50.9357 22.9741 51.0477 23.7035 51.5807 23.1566C51.8848 22.8446 52.2053 22.5889 52.4992 22.456C53.0386 22.2121 53.1768 21.6716 52.9138 20.8346Z" fill="yellow"></path> <path fill-rule="evenodd" clip-rule="evenodd" d="M49.6857 14.3249C48.3696 15.5956 47.7116 17.1441 47.7116 18.9706C47.7116 21.7103 47.2385 22.8069 48.2016 22.0529C49.1646 21.299 50.4885 20.7895 51.4899 20.7895C52.1575 20.7895 52.7404 20.7895 53.2387 20.7895L53.7702 19.6972C52.3314 19.5328 51.1196 19.6738 50.1348 20.1201C48.6578 20.7895 48.2016 21.6073 48.2016 19.6972C48.2016 17.7871 49.9208 14.4676 51.184 13.9042C52.0262 13.5287 51.5267 13.5287 49.6857 13.9042V14.3249Z" fill="yellow"></path> <path fill-rule="evenodd" clip-rule="evenodd" d="M55.1964 16.9983C54.4801 16.7711 53.6373 16.7711 52.6679 16.9983C51.6985 17.2256 50.945 17.8716 50.4073 18.9365C50.4696 19.2523 50.7412 19.1556 51.222 18.6462C51.7028 18.1369 52.9166 17.9124 54.8635 17.9729L55.1964 16.9983Z" fill="yellow"></path> <path fill-rule="evenodd" clip-rule="evenodd" d="M44.805 13.6226C43.7909 14.8902 43.145 15.8476 42.8674 16.4948C42.451 17.4655 42.0028 18.3586 42.8674 18.3586C43.4439 18.3586 45.0025 18.489 47.5435 18.7496L48.0313 17.5828C46.2386 17.5828 44.9297 17.5828 44.1048 17.5828C42.8674 17.5828 43.4047 16.794 44.1048 15.9365C44.5716 15.3649 45.4194 14.6914 46.6484 13.9161L44.805 13.6226Z" fill="yellow"></path> <path fill-rule="evenodd" clip-rule="evenodd" d="M45.328 18.0299C44.2766 19.0151 43.8402 20.6535 44.019 22.945C44.2872 26.3824 44.4398 26.6394 45.328 26.2876C46.2162 25.9358 48.192 24.9439 49.1867 22.945C49.8498 21.6125 50.3496 20.6829 50.6862 20.1565L49.1867 21.0311C48.6573 22.3492 48.0395 23.3742 47.3331 24.1063C46.2735 25.2045 44.7356 26.6417 44.7356 23.8364C44.7356 21.0311 45.5023 18.0299 46.4177 18.0299" fill="yellow"></path> <path fill-rule="evenodd" clip-rule="evenodd" d="M44.5182 13.2219C42.3779 14.0564 40.7754 14.5823 39.7106 14.7993C39.5712 14.8278 38.7697 16.1308 39.9625 15.8069C40.5487 15.6477 41.0996 15.5113 41.6153 15.3976C43.18 15.0526 44.1477 14.6607 44.5182 14.2219L46.1553 13.2219" fill="yellow"></path> <path fill-rule="evenodd" clip-rule="evenodd" d="M40.824 17.3043C41.4692 16.8317 42.5311 15.8716 44.0098 14.4239V15.2519L43.2435 16.6986C42.293 17.3049 41.5866 17.7494 41.1243 18.0322C39.7257 18.8878 40.7098 17.388 40.824 17.3043Z" fill="yellow"></path> <path fill-rule="evenodd" clip-rule="evenodd" d="M26.6622 22.5002C25.9423 22.7293 25.2731 22.9951 24.6546 23.2975C24.135 23.5516 24.5863 24.0534 24.3068 24.5558C24.0873 24.9502 23.5538 25.4446 24.3068 25.4446C26.0186 25.4446 33.7389 24.7648 37.378 22.5002C39.804 20.9904 41.7008 19.5358 43.0682 18.1362L42.6194 17.6292C40.7818 19.3085 39.0347 20.6024 37.378 21.5111C34.8929 22.8741 27.8345 24.8296 25.3397 24.8296C23.6765 24.8296 24.4349 24.1907 27.6148 22.913L28.7088 21.9219L26.6622 22.5002Z" fill="yellow"></path> <path fill-rule="evenodd" clip-rule="evenodd" d="M42.9273 18.0299C42.2006 20.5467 41.0997 22.6154 39.6247 24.236C38.1497 25.8566 37.2497 26.8258 36.9247 27.1437C36.5009 27.6967 36.8449 27.5889 37.9568 26.8203C39.6247 25.6673 43.4551 21.2719 43.7806 18.0299" fill="yellow"></path> <path fill-rule="evenodd" clip-rule="evenodd" d="M36.574 22.6834C35.5287 24.7953 34.1284 26.7776 32.3732 28.6303C30.618 30.483 28.8468 32.0223 27.0597 33.2482C26.4597 33.6182 26.6245 33.8937 27.5543 34.0745C28.9489 34.3458 35.8342 33.6437 40.1346 28.6303C43.0014 25.288 44.5835 22.4223 44.8807 20.0332L43.9088 20.7933C42.5539 23.6328 41.2958 25.7279 40.1346 27.0788C38.9733 28.4297 37.0716 29.8995 34.4297 31.4883C30.5011 33.1526 29.0003 33.4646 29.9273 32.4243C31.3179 30.8638 36.2715 27.059 37.5368 22.2536" fill="yellow"></path> <path fill-rule="evenodd" clip-rule="evenodd" d="M44.459 24.4405C43.5964 25.0284 42.9254 26.3015 42.446 28.2599C41.9665 30.2183 41.8826 32.4197 42.1944 34.8642L43.9829 34.2934C42.9199 30.5987 43.1821 27.6487 44.7696 25.4432" fill="yellow"></path> <path fill-rule="evenodd" clip-rule="evenodd" d="M42.4347 29.2484C41.2316 32.0903 39.8785 34.2863 38.3755 35.8363C36.121 38.1613 36.6022 38.4125 37.4889 37.9222C38.3755 37.432 41.0838 35.4346 42.4347 31.1953" fill="yellow"></path> <path fill-rule="evenodd" clip-rule="evenodd" d="M34.5309 36.784C34.9192 35.9659 35.354 35.1955 35.8351 34.4728C37.25 32.3475 38.7605 30.2054 40.3667 28.0465L38.2888 29.5213L36.8314 30.2584L37.2204 30.5977C35.5533 33.2128 34.4523 35.1168 33.9175 36.3097" fill="yellow"></path> <path fill-rule="evenodd" clip-rule="evenodd" d="M32.3365 36.31C33.8381 35.3743 35.1678 34.4241 35.8913 33.1706C36.7512 31.6806 36.9396 31.6806 36.4565 33.1706L34.8069 35.6009C34.3065 36.0389 33.8757 36.3593 33.5145 36.5622C33.111 36.7887 31.1611 37.0426 32.3365 36.31Z" fill="yellow"></path> <path fill-rule="evenodd" clip-rule="evenodd" d="M30.0828 34.0565C27.7017 35.9628 25.9894 37.4126 24.9457 38.4059C23.9021 39.3992 23.284 40.1863 23.0913 40.7671L23.9671 41.0054C25.4358 38.6721 27.9806 36.3558 31.6014 34.0565" fill="yellow"></path> <path fill-rule="evenodd" clip-rule="evenodd" d="M34.7382 23.6392C33.1876 25.6172 31.5299 27.0806 29.765 28.0293C27.1176 29.4523 25.0427 30.2255 26.2605 30.2255C27.4784 30.2255 32.864 27.6456 35.8485 23.6392" fill="yellow"></path> <path fill-rule="evenodd" clip-rule="evenodd" d="M28.4118 24.6796C25.9188 26.7902 24.043 28.1805 22.7844 28.8507C22.7437 28.8724 21.7762 31.3687 22.2865 31.5798C24.1331 32.3437 30.2148 31.3116 33.5346 27.9927C36.3596 25.1686 36.9112 24.4162 35.1894 25.7356C32.7677 27.8034 30.5085 29.1941 28.4118 29.9077C26.4397 30.5789 24.2121 31.0485 22.5975 31.3054C21.6373 31.4582 22.1144 30.2243 22.8402 29.8717C25.53 28.5651 29.4454 26.1675 30.6417 24.4405" fill="yellow"></path> <path fill-rule="evenodd" clip-rule="evenodd" d="M27.0065 25.0847C25.8094 25.6983 24.8686 26.1011 24.1841 26.2933C23.6167 26.4526 24.5479 25.7908 24.6928 24.8567C24.8776 23.6656 24.4012 22.1154 24.5876 22.1666C24.9117 22.2556 25.4577 22.4867 26.2254 22.8599L27.0065 22.485C25.9591 21.8593 25.1878 21.4858 24.6928 21.3646C24.5034 21.3182 24.6523 22.4613 24.4424 24.2638C24.4365 24.3148 24.0138 25.4605 24.0096 25.5112C23.956 26.1509 23.0686 26.5622 23.3907 27.014C23.4459 27.0914 23.5461 27.1398 23.6913 27.1592C24.0841 27.2116 25.4143 26.8121 27.6819 25.9608L28.3253 24.5789" fill="yellow"></path> <path fill-rule="evenodd" clip-rule="evenodd" d="M22.6226 31.6342C22.4027 32.2804 22.5822 32.5213 23.1611 32.3569C24.3651 32.015 25.7506 31.6747 27.3176 31.3359V30.8511" fill="yellow"></path> <path fill-rule="evenodd" clip-rule="evenodd" d="M23.7001 36.4851C24.5783 36.3653 25.3283 36.1903 25.8323 35.945C27.3614 35.2006 28.7018 34.7047 29.8534 34.4571L27.902 35.945C26.3686 36.7276 24.9711 37.1998 23.7095 37.3615" fill="yellow"></path> <rect width="72" height="116" fill="yellow" fill-opacity="0" transform="translate(133) scale(-1 1)"></rect> <rect width="72" height="116" fill="yellow" fill-opacity="0" transform="translate(133) scale(-1 1)"></rect> <rect width="72" height="116" fill="yellow" fill-opacity="0" transform="translate(133) scale(-1 1)"></rect> <rect width="72" height="116" fill="yellow" fill-opacity="0" transform="translate(133) scale(-1 1)"></rect> <rect width="72" height="116" fill="yellow" fill-opacity="0" transform="translate(133) scale(-1 1)"></rect> <rect width="72" height="116" fill="yellow" fill-opacity="0" transform="translate(133) scale(-1 1)"></rect> <rect width="72" height="116" fill="yellow" fill-opacity="0" transform="translate(133) scale(-1 1)"></rect> <rect width="72" height="116" fill="yellow" fill-opacity="0" transform="translate(133) scale(-1 1)"></rect> <rect width="45.1522" height="49.1401" fill="yellow" fill-opacity="0" transform="matrix(0.863894 -0.503673 0.496336 0.868131 61 73.3399)"></rect> <rect width="29.3415" height="39.6912" fill="yellow" fill-opacity="0" transform="translate(78.0817 63.3809) scale(0.996315 1.00365)"></rect> <path fill-rule="evenodd" clip-rule="evenodd" d="M103.937 76.6097C103.881 76.8806 103.821 77.1027 103.755 77.276C103.298 78.4851 103.07 79.7934 103.07 81.201L102.629 78.8105C102.154 75.345 101.576 72.9524 100.895 71.6329C100.214 70.3134 99.8661 69.3823 99.8501 68.8397L99.5755 65.9124L100.421 66.5232C100.617 67.9508 100.974 69.5112 101.491 71.2043C102.008 72.8975 102.534 74.7785 103.07 76.8472C103.334 72.6934 103.467 70.0242 103.467 68.8397C103.467 67.6552 103.467 66.7758 103.467 66.2012L104.382 66.5232C104.382 66.5684 104.382 66.6135 104.383 66.6584L105.596 66.5232C107.263 72.8801 107.718 78.6058 106.96 83.7003C105.822 91.3421 103.655 95.5607 102.859 92.7339C102.329 90.8493 101.927 88.8839 101.654 86.8378C101.8 87.6452 101.395 90.0458 100.442 94.0394C99.4886 98.033 96.8545 101.092 92.5397 103.217C92.9223 102.423 93.6892 100.6 94.8406 97.7479C96.5676 93.4693 95.9412 86.7528 95.9412 88.0489C95.9412 89.3451 93.9813 91.2183 93.9813 90.2982C93.9813 89.6847 93.9813 88.935 93.9813 88.0489C94.0827 88.4672 93.6022 89.5237 92.5397 91.2183C91.4772 92.913 89.4929 94.3604 86.5869 95.5607C87.114 94.7236 87.6286 93.6103 88.1308 92.221C88.6329 90.8317 88.9805 89.2344 89.1736 87.4291C88.9687 87.6536 88.4969 88.2999 87.7582 89.3681C87.0194 90.4363 86.2019 91.3873 85.3056 92.221C85.5851 90.2489 85.7248 88.0333 85.7248 85.574C85.7248 83.1148 85.1499 80.8181 84.0003 78.6839L84.0751 78.3541C83.7743 79.003 83.3931 79.5935 82.9317 80.1257C81.3963 81.8965 79.7796 83.1323 78.0817 83.8331C78.4876 83.5212 78.9792 82.6505 79.5564 81.2208C80.1335 79.7912 80.38 78.1903 80.2956 76.4183C81.0993 73.4476 81.5012 73.214 81.5012 75.7174C81.5012 78.2208 81.0993 80.0553 80.2956 81.2208C81.0993 80.4907 81.833 79.5349 82.4966 78.3535C83.1602 77.172 83.4656 75.5968 83.4129 73.6279L84.6474 72.9896C84.5357 72.8581 84.4239 72.7329 84.3118 72.614L85.2683 71.9246C86.0857 72.7647 86.7623 74.1372 87.2982 76.0421C87.8342 77.947 88.0071 79.903 87.8171 81.9103C87.3805 78.5858 86.8479 76.3758 86.2193 75.2805C85.7828 74.5199 85.3428 73.8588 84.8992 73.2973C84.9639 74.5129 84.8829 75.6226 84.6564 76.6264C84.8654 76.9602 85.2215 77.8817 85.7248 79.3911C86.5746 81.9397 86.862 85.0001 86.5869 88.5724C86.5869 89.1029 87.1015 88.5247 88.1308 86.8378C88.7609 85.805 89.1957 84.5469 89.4352 83.0633L89.3197 82.9558C89.3987 81.5238 89.2856 79.8668 88.9802 77.9845C88.6749 76.1023 87.8456 73.9061 86.4923 71.3959L86.8999 70.026C87.575 70.3149 88.2684 71.7035 88.9802 74.1916C89.6089 76.389 89.9901 79.1286 90.1239 82.4103C90.2026 83.0104 90.2812 83.7065 90.3596 84.4985C90.5938 86.8611 90.1984 89.6062 89.1736 92.7339C90.1184 92.1548 91.2404 90.8895 92.5397 88.938C92.9985 88.2489 93.3454 87.4282 93.6133 86.5973C93.5294 86.7431 93.4392 86.8833 93.3426 87.018C93.8886 85.9226 94.1617 84.6385 94.1617 83.1658C94.1617 81.693 93.4948 79.2831 92.1611 75.9359C92.1611 77.4668 92.1611 78.8283 92.1611 80.0202C92.1611 81.2122 91.9954 83.1744 91.664 85.9068C91.6615 80.3758 91.4321 76.6058 90.9758 74.597C90.5195 72.5882 89.648 70.6429 88.3613 68.7612L88.3613 67.4945C91.6822 73.1221 93.6156 77.4023 94.1617 80.335C94.3397 81.2911 94.4306 82.1723 94.4346 82.9785C94.591 82.1057 94.6803 81.7252 94.8406 82.351C95.2617 83.9955 94.4194 88.938 95.1922 88.0489C95.7075 87.4562 96.1642 86.2728 96.5624 84.4985C97.375 86.4522 97.6553 88.9078 97.4032 91.8653C97.1511 94.8227 96.5732 97.476 95.6693 99.8251C96.1982 99.4478 96.7762 98.9247 97.4032 98.256C98.3437 97.2528 99.6684 93.6039 100.442 88.938C100.958 85.8274 100.811 80.5209 100.001 73.0186C101.103 77.4021 101.84 81.1097 102.21 84.1415C102.581 87.1734 103.066 89.748 103.667 91.8653C105.101 90.2005 105.938 86.2364 106.177 79.973C106.393 74.2809 105.796 70.1098 104.386 67.46C104.395 71.4852 104.28 74.3281 104.042 75.9886C104.637 79.3034 104.935 81.6347 104.935 82.9826C104.935 84.4082 104.602 85.6167 103.937 86.6082C103.937 84.2138 103.937 82.127 103.937 80.3479C103.937 78.5688 103.937 77.5665 103.937 77.341L103.937 76.6097ZM96.8771 79.4014C98.204 81.939 98.8675 84.262 98.8675 86.3707C98.8675 88.5342 98.7234 90.4127 98.4352 92.0059C98.4431 87.6141 98.2245 84.8752 97.7794 83.7893C97.3801 82.815 97.0687 82.0916 96.8452 81.6191C96.8022 82.5314 96.7227 83.4625 96.6067 84.4126C96.6287 81.75 96.493 79.0706 96.1994 76.3743C95.9058 73.678 94.4353 69.56 91.7879 64.0203L92.1611 63.5735C94.1075 67.0799 95.4536 70.459 96.1994 73.7109C96.6122 75.5111 96.8381 77.4079 96.8771 79.4014ZM89.6074 64.7204L89.6074 63.3809C91.3561 66.8348 92.7078 69.3745 93.6623 71.0002C95.0942 73.4386 94.4236 76.5489 94.3605 77.2826C94.2975 78.0163 94.3802 76.6354 93.4487 73.4863C92.8278 71.3868 91.5473 68.4649 89.6074 64.7204ZM94.2269 64.9205C93.9077 63.66 94.3846 63.9906 95.6577 65.9124C96.9308 67.8341 97.773 71.7055 98.1845 77.5265C98.3771 77.1843 98.5878 75.8755 98.8164 73.6002C99.045 71.325 98.9307 68.7826 98.4734 65.9732L99.484 65.9732C99.8211 68.9858 99.8211 71.6311 99.484 73.9092C99.147 76.1872 98.7138 77.9884 98.1845 79.3125C97.9711 78.2431 97.6521 76.5397 97.2275 74.2023C96.8029 71.8648 95.8027 68.7709 94.2269 64.9205Z" fill="yellow"></path> <rect width="48.9729" height="56.9596" fill="yellow" fill-opacity="0" transform="translate(133 9.88049) scale(-1 1)"></rect> <rect width="48.9729" height="56.9596" fill="yellow" fill-opacity="0" transform="translate(133 9.88049) scale(-1 1)"></rect> <path fill-rule="evenodd" clip-rule="evenodd" d="M112.391 52.6633C112.024 53.1627 112.134 53.4124 112.722 53.4124C113.31 53.4124 114.373 53.1627 115.912 52.6633C116.142 52.5764 116.163 52.3893 115.976 52.102C115.789 51.8147 115.393 51.2905 114.79 50.5292C114.595 50.2984 114.403 50.2984 114.212 50.5292C114.022 50.76 113.415 51.4714 112.391 52.6633Z" fill="yellow"></path> <path fill-rule="evenodd" clip-rule="evenodd" d="M119.374 50.2732C119.731 50.3809 120.798 50.3827 120.086 49.8205C119.374 49.2583 117.966 48.1297 117.966 47.4058C117.966 46.6818 118.697 46.1792 118.122 45.7746C117.547 45.3699 115.56 43.4566 114.907 41.5718C114.253 39.687 114.313 38.2388 114.313 37.7217C114.313 37.2046 114.697 37.307 114.987 37.5648C115.277 37.8226 116.817 39.181 117.55 39.9273C118.282 40.6736 118.664 41.1618 118.473 39.9912C118.282 38.8207 116.739 35.4733 115.863 34.0771C114.987 32.6809 113.508 31.013 113.296 31.013C113.084 31.013 113.208 31.847 113.62 32.5932C114.031 33.3393 114.846 34.7459 114.439 35.0937C114.031 35.4415 112.968 34.1387 112.633 33.8294C112.298 33.5201 111.407 32.474 111.082 33.4592C110.758 34.4444 110.791 38.7101 110.937 39.5849C111.082 40.4597 111.822 42.3813 112.156 42.0865C112.49 41.7917 113.006 40.603 113.085 41.6409C113.163 42.6788 114.615 44.0169 115.096 44.3569C115.577 44.697 116.058 44.7934 115.577 44.8743C115.096 44.9552 114.508 44.9388 115.096 45.485C115.684 46.0311 115.976 46.5161 116.369 46.7779C116.537 46.8894 116.418 48.0256 117.19 48.9464C117.626 49.4663 119.017 50.1654 119.374 50.2732Z" fill="yellow"></path> <path fill-rule="evenodd" clip-rule="evenodd" d="M118.205 35.8351C118.435 36.118 118.867 36.5731 118.867 35.2298C118.867 33.8865 118.097 32.4354 116.042 30.1487C113.988 27.862 112.526 25.37 112.358 24.6253C112.19 23.8806 112.145 23.2105 112.534 23.6103C112.793 23.8768 113.562 24.595 114.84 25.7651C115.348 25.8003 115.262 25.4203 114.583 24.6253C113.564 23.4327 112.894 22.3396 112.894 21.7444C112.894 21.1491 112.635 21.1448 112.157 21.3028C111.839 21.4081 111.154 21.8024 110.102 22.4856C109.697 22.6818 109.641 23.1834 109.931 23.9905C110.367 25.2012 111.394 28.11 111.604 28.3829C111.813 28.6558 112.157 29.2026 112.157 28.7928C112.157 28.3829 112.738 28.4975 113.432 29.1115C114.126 29.7256 116.5 31.5156 117.352 33.3727C118.205 35.2298 117.974 35.5522 118.205 35.8351Z" fill="yellow"></path> <path fill-rule="evenodd" clip-rule="evenodd" d="M123.713 51.2336C123.49 51.0511 123.171 50.6817 124.131 50.6817C125.092 50.6817 127.355 50.0188 128.197 48.9592C129.039 47.8996 129.624 47.5098 129.624 48.2345C129.624 48.9592 130.294 49.6839 130.294 48.9592C130.294 48.2345 130.625 47.6707 130.898 48.5372C131.171 49.4037 131.259 50.6978 130.898 51.5548C130.537 52.4119 129.624 52.8997 129.624 52.323C129.624 51.7464 129.383 51.365 128.994 51.7666C128.605 52.1682 127.775 52.5215 126.311 52.5215C124.847 52.5215 125.687 52.1582 125.999 52.1582C126.311 52.1582 126.618 51.9784 125.456 51.7666C124.294 51.5548 123.936 51.4161 123.713 51.2336Z" fill="yellow"></path> <path fill-rule="evenodd" clip-rule="evenodd" d="M126.859 54.2988C127.081 54.4459 126.275 56.5426 124.153 56.9804C122.738 57.2723 121.972 57.4182 121.855 57.4182C119.388 59.4012 117.418 60.836 115.945 61.7227C113.736 63.0528 111.907 64.3809 106.928 64.7605C103.608 65.0136 99.296 64.3849 93.9924 62.8745L91.0878 61.7227C90.6943 61.5193 91.0467 61.0376 92.1451 60.2776C93.7928 59.1377 95.8215 58.4756 97.2751 58.4756C98.7287 58.4756 99.166 58.6107 99.0201 59.2177C98.8742 59.8246 99.2207 61.4481 102.39 61.922C105.559 62.3959 110.687 62.8389 116.404 59.2177C120.216 56.8035 122.399 55.7735 122.952 56.1275C125.409 54.8104 126.711 54.2008 126.859 54.2988Z" fill="yellow"></path> <path fill-rule="evenodd" clip-rule="evenodd" d="M92.6582 20.5195C92.728 20.7966 92.8262 21.0628 93.0024 21.3144C93.6553 22.5797 94.8413 23.9679 95.9365 23.9679C97.021 23.9679 98.2656 23.5591 99.3408 23.2057C99.8706 23.0317 100.359 22.8711 100.768 22.7795C101.292 22.6617 101.61 22.6871 101.97 22.7158C102.456 22.7547 103.019 22.7997 104.274 22.5019C106.458 21.9847 107.331 21.8916 107.885 22.5019C108.126 22.7678 108.2 23.3834 108.293 24.1693C108.416 25.1882 108.571 26.4935 109.171 27.6943L109.284 27.9187C110.261 29.8694 110.59 30.5257 109.944 31.8819C109.274 33.2889 109.171 34.5428 109.171 36.8623C109.171 37.3513 109.19 37.7569 109.206 38.0835C109.263 39.3061 109.269 39.4195 108.028 38.639C107.726 38.4487 107.399 38.1974 107.042 37.922C105.54 36.7658 103.489 35.187 100.39 35.9355C98.9785 36.2763 98.0703 36.5825 97.4253 36.8C96.3159 37.1739 95.9834 37.2861 95.208 36.8623C94.7754 36.6261 94.1616 36.2446 93.5259 35.8498C92.3579 35.1244 91.1167 34.3535 90.7935 34.3535C90.4609 34.3535 89.7969 34.0984 88.8008 33.5881C86.9771 34.6521 85.6074 36.8124 84.6914 40.0691C83.3179 44.954 84.1524 49.9975 86.4766 52.7992C88.8008 55.6009 90.9194 55.919 92.0596 55.919C93.1997 55.919 94.4482 55.4936 92.0596 54.8507C89.6709 54.2077 87.9126 52.4875 87.4512 51.8115C86.9898 51.1355 87.7114 51.0051 89.6709 51.0703C90.4409 51.0959 91.1489 51.4894 92.061 51.9962C93.4712 52.7795 95.3682 53.8335 98.7329 54.2178C102.427 54.6398 105.574 54.1669 108.173 52.7992C109.059 51.8115 108.963 51.4822 107.885 51.8115C107.679 51.8742 107.456 51.9527 107.211 52.0387C105.532 52.6289 102.844 53.5737 97.9082 52.2436C94.1387 51.2278 91.3931 49.8037 89.6709 47.9713C89.5361 46.1745 89.9102 44.6465 90.7935 43.3872C92.1187 41.4983 91.5029 41.4837 90.7935 42.0527C90.084 42.6216 88.8794 43.781 88.439 45.5515C87.9985 47.322 87.7515 45.6908 87.875 44.5389C87.9575 43.7711 88.6318 42.7971 89.8989 41.6169C90.4297 41.4867 90.354 41.2048 89.6709 40.7712C88.9883 40.3377 88.0947 39.6269 86.9898 38.639C86.8369 38.3362 86.9907 38.3362 87.4512 38.639C88.1426 39.0931 88.9443 38.9703 88.0405 38.1648C87.8369 37.9835 87.6572 37.8509 87.5093 37.7417C86.9995 37.3658 86.8667 37.2682 87.4512 36.4198L87.5596 36.2622C88.21 35.3121 88.2886 35.1981 89.6709 35.435C90.6416 35.6014 92.2588 36.3397 94.5225 37.65C95.3701 38.0198 95.5274 38.3493 94.9946 38.639C94.1953 39.0733 93.2876 40.0691 93.6597 40.0691C93.8691 40.0691 94.5147 39.6504 95.1773 39.2206C95.6904 38.8878 96.2134 38.5483 96.5527 38.3915C96.6909 38.3274 96.8657 38.2301 97.0723 38.1146C98.0259 37.5823 99.668 36.6656 101.639 36.8623C104.037 37.1017 106.134 38.1554 108.173 40.7712C109.533 42.5152 110.343 43.9996 110.604 45.2243C111.061 46.0886 111.239 45.9985 111.139 44.954C111.057 44.1018 110.968 43.8531 111.014 43.8248C111.053 43.801 111.187 43.9322 111.499 43.9923C112.184 44.124 113.158 43.7639 112.509 43.5296C111.86 43.2954 110.5 41.8835 110.122 40.4275C109.839 39.3347 109.88 38.2182 109.918 37.1874C109.932 36.8448 109.944 36.5117 109.944 36.192C109.944 34.9106 110.172 33.3202 110.604 32.4663C110.705 32.2649 110.785 32.0792 110.853 31.9208C111.073 31.4072 111.171 31.1787 111.499 31.6245C111.928 32.208 112.494 32.4183 112.211 31.6245C111.928 30.8308 111.263 29.397 110.604 28.1654C109.944 26.9338 108.944 24.3334 108.944 23.3981V23.2785C108.944 22.4463 108.943 22.2665 109.274 21.9847C109.62 21.6899 109.396 21.4761 108.784 21.4761C108.173 21.4761 108.332 20.9352 108.944 20.9352C109.557 20.9352 110.9 20.7727 111.282 20.2248C111.581 19.7961 111.168 19.8937 110.664 20.0129C110.523 20.0461 110.376 20.0809 110.235 20.1067C109.585 20.2248 107.381 20.2192 107.248 19.379C107.134 18.6605 107.361 18.6169 107.792 18.5342C107.865 18.5201 107.944 18.5051 108.028 18.4853C108.609 18.3491 109.171 17.6837 109.171 17.3794C109.171 17.2026 108.985 17.3595 108.741 17.5643C108.565 17.7121 108.36 17.8849 108.173 17.9754C107.728 18.1914 107.084 17.9398 106.979 17.6596C106.875 17.3794 106.458 17.092 106.458 17.6596C106.458 17.873 106.43 18.1268 106.4 18.3959C106.352 18.8425 106.298 19.3316 106.359 19.749C106.379 19.8832 106.411 20.0189 106.442 20.1529C106.568 20.6872 106.687 21.1954 106.005 21.4761C105.152 21.8272 105.143 20.9352 105.653 20.9352C106.163 20.9352 105.968 19.9188 105.81 19.379C105.671 18.9016 104.246 18.9531 103.741 18.9714C103.676 18.9737 103.625 18.9756 103.596 18.9756C103.339 18.9756 103.197 17.8364 103.396 15.9745C103.596 14.1125 103.037 14.5285 102.856 16.2519C102.675 17.9754 102.623 18.7373 103.396 20.1067C104.169 21.4761 104.094 21.6753 103.596 21.9847C103.098 22.2942 101.826 22.2326 102.462 21.9847C103.098 21.7369 103.25 21.6456 102.856 20.9352C102.593 20.4616 102.406 19.9429 102.294 19.379C102.05 19.2578 101.713 19.1971 101.281 19.1971C100.633 19.1971 99.9805 19.2134 99.8276 19.379C99.6748 19.5448 99.2661 18.5068 99.2661 17.3794C99.2661 16.2519 99.3203 15.3443 99.5737 14.7342C99.8276 14.1241 99.2651 13.8432 98.7329 15.5028C98.2007 17.1623 98.7046 18.7373 99.2661 20.1067C99.4268 20.4985 99.5894 20.8423 99.7295 21.139C100.08 21.8794 100.292 22.3276 99.9927 22.5019C99.5737 22.7463 99.5737 22.4934 99.5737 21.9847C99.5737 21.4761 99.1187 19.9294 98.5137 19.5632C97.9082 19.1971 96.9341 19.379 96.9341 19.379C96.9341 19.379 97.4277 20.6778 97.1807 20.6778C96.9341 20.6778 96.2095 20.0613 96.2095 18.7203C96.2095 17.6632 96.5068 16.6217 96.7529 15.7573C96.8193 15.5254 96.8818 15.3061 96.9341 15.1028C97.1807 14.1419 96.7329 14.3417 96.2095 15.7032C95.6865 17.0649 95.3179 18.6405 95.6362 19.5632C95.9009 20.3309 96.4102 20.9874 96.8931 21.6103C96.9907 21.7363 97.0874 21.8609 97.1807 21.9847C97.3472 22.2054 97.5376 22.3952 97.6958 22.5527C98.0649 22.9205 98.2573 23.1124 97.5552 23.1124C97.1362 23.1124 97.0254 23.1349 97.0112 23.1069C96.9907 23.0682 97.1563 22.9319 96.9341 22.5019L96.8247 22.2873C96.4336 21.5182 95.8316 20.3324 95.208 20.2248C94.9014 20.172 94.7593 20.1022 94.6357 20.0412C94.4824 19.9659 94.3565 19.904 93.981 19.904C93.7153 19.904 93.4307 19.6986 93.1826 19.5196C93.1387 19.488 93.0962 19.4574 93.0552 19.4287C92.8433 18.8928 93.02 17.9636 93.5864 16.6413C94.54 14.4154 95.9458 12.786 96.8389 12.5676C97.5689 12.3893 98.0689 11.9707 98.5117 11.5998C98.6108 11.5167 98.707 11.436 98.8027 11.3609C99.3237 10.9508 99.8853 10.8512 100.288 11.1061C100.459 11.2138 100.547 11.2794 100.645 11.2984C100.779 11.3246 100.93 11.264 101.328 11.1061C102.018 10.8324 102.59 10.9933 103.207 11.3609C103.824 11.7286 104.996 12.1993 106.839 12.3835C108.683 12.5676 111.739 13.6667 113.025 14.9111C114.312 16.1554 115.125 17.4249 114.718 17.6678C114.55 17.7685 114.329 17.7033 114.174 17.6577C113.957 17.5934 113.871 17.5681 114.252 18.105C114.33 18.2147 114.4 18.3161 114.467 18.4114C114.955 19.1113 115.206 19.4729 116.375 20.3208C117.703 21.2839 118.284 21.8934 117.994 22.2671C117.907 22.378 117.757 22.4143 117.632 22.4444C117.336 22.516 117.181 22.5534 118.348 23.4697C118.54 23.621 118.772 23.7939 119.037 23.9913C121.052 25.4938 124.953 28.4017 127.595 33.7762C129.938 38.5417 129.697 43.178 129.586 45.3093C129.556 45.8973 129.535 46.2948 129.582 46.4516C129.722 46.9287 129.755 46.7723 129.82 46.4629C129.854 46.3016 129.896 46.0989 129.967 45.9225L130.02 45.7881C130.217 45.277 130.461 44.6437 130.884 45.9225C130.988 46.2377 131.134 46.5797 131.29 46.9436C131.823 48.1898 132.467 49.6937 131.908 51.2652C131.186 53.2958 130.46 53.6156 129.804 53.8638C129.601 53.9405 129.451 54.0382 129.341 54.1098C129.097 54.2695 129.05 54.3 129.05 53.6824C129.05 52.7878 128.621 53.1896 128.309 54.0228L128.262 54.1498C127.923 55.0718 127.131 57.2212 125.079 57.7525C124.319 57.9493 123.82 57.9967 123.43 58.0338C122.715 58.1017 122.367 58.1347 121.444 58.9894C120.018 60.3103 114.176 65.1401 109.111 65.6952C104.046 66.2502 97.8311 65.3445 94.6582 64.1101C92.543 63.2872 91.1172 62.6996 90.3814 62.347V63.609C92.9273 64.9743 96.2295 65.9259 100.288 66.4637C106.376 67.2704 111.152 66.8227 115.032 64.7087C117.496 63.3663 119.576 61.6897 120.978 60.5597C121.784 59.9103 122.365 59.4414 122.667 59.3205C122.848 59.2481 123.132 59.1759 123.48 59.0873C124.727 58.7704 126.795 58.2445 127.887 56.7577C128.959 55.2971 129.131 55.2071 129.936 54.7864C130.18 54.6589 130.481 54.5012 130.884 54.2657C132.615 53.253 133.502 51.676 132.705 48.3331C132.338 46.7938 131.916 45.9457 131.538 45.1854C131.095 44.2947 130.712 43.5246 130.548 41.905C130.524 41.6678 130.5 41.4186 130.476 41.1584C130.19 38.1268 129.766 33.624 126.656 29.6289C124.491 26.8481 122.271 25.058 120.837 23.9011C120.034 23.2533 119.477 22.8039 119.313 22.4905L119.258 22.3846C118.816 21.5327 118.291 20.5231 117.101 19.6075C115.86 18.6538 115.394 17.5769 115.394 16.6413C115.394 15.7058 114.646 14.0293 110.094 12.5676C108.859 12.171 107.918 11.8742 107.183 11.6423C105.207 11.0193 104.712 10.8634 103.98 10.4961C102.977 9.99204 102.368 9.70677 101.328 9.99644C100.771 10.1518 100.544 10.2239 100.313 10.2573C100.112 10.2862 99.9077 10.2862 99.481 10.2862C99.376 10.2862 99.2817 10.2851 99.1958 10.284C98.5278 10.2759 98.3745 10.274 97.8203 10.8711C97.6655 11.0379 97.5425 11.1885 97.4351 11.3204C97.1079 11.7212 96.9204 11.9512 96.3941 11.9512C95.6943 11.9512 95.0029 12.6333 93.8374 14.1256C92.6719 15.6179 91.7832 17.8921 92.2275 18.8536C92.3667 19.1548 92.4419 19.4518 92.5005 19.7412C92.5005 19.7438 92.5005 19.7464 92.5005 19.749C92.5005 19.9576 92.5566 20.2232 92.6582 20.5195Z" fill="yellow"></path> <rect width="43.6495" height="41.0054" fill="yellow" fill-opacity="0" transform="translate(111.151) scale(-1 1)"></rect> <path fill-rule="evenodd" clip-rule="evenodd" d="M75.5921 6.65112C76.5481 6.22369 76.5481 6.00998 75.5921 6.00998C74.1581 6.00998 72.3751 6.12269 70.9663 7.52685C69.5575 8.931 69.6938 14.3173 69.6938 16.0383C69.6938 17.7593 69.8438 21.3157 69.2611 23.1021C68.9513 24.0516 68.2106 25.2872 67.5847 26.6087C67.033 27.7734 69.408 26.7909 69.4767 26.6726C70.9663 24.1065 70.9663 21.1464 70.9663 17.8119C70.9663 14.3237 70.6506 9.82335 71.884 8.23723C72.7062 7.17982 73.9423 6.65112 75.5921 6.65112Z" fill="yellow"></path> <path fill-rule="evenodd" clip-rule="evenodd" d="M70.475 9.04333C70.2628 6.22849 71.3564 3.74434 73.7557 1.59088C77.3547 -1.63931 84.3135 0.942497 85.2083 1.59088C86.1032 2.23926 86.8186 3.09241 85.6347 3.09241C84.4508 3.09241 82.5833 3.35398 82.1574 4.52166C81.8734 5.30012 81.769 6.27423 81.8442 7.444L79.978 7.9477C79.8283 6.03743 80.2155 4.56723 81.1396 3.53709C82.5258 1.99188 83.7105 2.17214 81.8442 1.59088C79.978 1.00962 76.5422 0.928046 74.4887 2.72485C73.1197 3.92273 72.3526 5.49577 72.1874 7.444L70.475 9.04333Z" fill="yellow"></path> <path fill-rule="evenodd" clip-rule="evenodd" d="M74.6807 18.0488C74.8921 18.2181 74.1144 19.6044 74.3975 22.2335C74.6807 24.8626 73.9073 25.4756 72.9272 26.0051C72.6502 26.1548 70.7604 26.4903 70.975 26.2785C72.4474 24.8255 73.5797 24.3319 73.5797 21.5789C73.5797 18.826 74.4692 17.8796 74.6807 18.0488Z" fill="yellow"></path> <path fill-rule="evenodd" clip-rule="evenodd" d="M77.341 8.96218C77.341 8.71579 79.4332 6.59893 82.4298 7.38668C85.4263 8.17443 86.5123 10.6209 86.2062 11.1167C85.9 11.6125 83.7283 10.8148 81.086 11.1167C78.4437 11.4186 76.6298 15.0226 76.6298 17.0285C76.6298 18.785 77.6935 22.8245 77.0266 25.0278C76.9319 25.3407 75.1644 25.6942 75.454 25.1195C76.8532 22.3424 75.1333 17.2849 75.3982 15.0624C75.7179 12.3801 79.4068 9.67242 82.4298 9.67242C85.4528 9.67242 84.2812 9.05263 82.4298 8.36444C80.5784 7.67624 77.341 9.20857 77.341 8.96218Z" fill="yellow"></path> <path fill-rule="evenodd" clip-rule="evenodd" d="M81.5892 7.34332C84.2078 5.85443 86.8941 5.61248 89.6479 6.61746C93.7787 8.12493 96.9771 10.3404 98.9582 10.3404C100.279 10.3404 100.015 10.8438 98.1673 11.8506C94.86 10.6976 92.3664 9.72417 90.6865 8.93027C88.1667 7.73942 84.5258 7.8294 83.6854 8.23926C83.125 8.5125 82.4263 8.21386 81.5892 7.34332Z" fill="yellow"></path> <path fill-rule="evenodd" clip-rule="evenodd" d="M95.0822 12.9065C93.0474 12.4747 91.5606 11.9444 90.6219 11.3158C88.7254 10.0458 84.7634 8.80613 83.6322 8.48307C82.8781 8.2677 83.2192 8.55553 84.6555 9.34655L85.285 9.97414C87.2978 10.7489 88.6905 11.4025 89.463 11.9349C90.0602 12.3464 91.7761 12.9102 94.6106 13.6261" fill="yellow"></path> <path fill-rule="evenodd" clip-rule="evenodd" d="M90.3895 11.8558C91.1434 12.472 91.2324 12.8856 90.6566 13.0965C89.7928 13.4129 87.3036 13.8822 86.0638 13.6475C84.824 13.4129 83.9399 11.5456 83.1043 11.2236C82.5473 11.009 82.1017 10.708 81.7677 10.3208H84.0135C84.5083 11.1277 85.0296 11.7921 85.5774 12.3138C86.3991 13.0965 89.6806 12.8081 89.3344 12.0159C89.1036 11.4877 88.1252 10.8213 86.3991 10.0166L88.8006 10.3208L90.3895 11.8558Z" fill="yellow"></path> <path fill-rule="evenodd" clip-rule="evenodd" d="M85.7381 13.646V14.5155C86.0239 15.0372 85.7995 15.2058 85.0647 15.0211C83.9627 14.7441 82.9836 13.9602 81.3584 13.9602C79.7331 13.9602 78.4861 15.8832 78.4861 16.7682C78.4861 17.6532 78.9031 17.8319 79.468 18.8463C79.9922 19.7876 80.7599 20.5616 81.0586 22.6304C81.0818 22.7908 80.9019 24.1943 80.7032 22.9563C80.6522 22.6388 80.5837 22.3516 80.4976 22.0946C79.8647 20.2068 77.2667 18.3949 77.677 16.4552C78.0874 14.5155 79.6022 13.1265 81.1194 13.1265C82.1308 13.1265 83.2819 13.2997 84.5728 13.646V12.4206L85.7381 13.646Z" fill="yellow"></path> <path fill-rule="evenodd" clip-rule="evenodd" d="M76.5427 18.8312C77.5598 19.9376 78.3068 20.9948 78.7836 22.0027C79.4988 23.5146 79.7802 24.492 79.1162 23.7771C78.4521 23.0622 77.5985 21.3361 76.5427 20.873C75.8388 20.5642 75.8388 19.8836 76.5427 18.8312Z" fill="yellow"></path> <path fill-rule="evenodd" clip-rule="evenodd" d="M80.5904 20.8346C81.4216 21.5586 82.0318 22.2085 82.4212 22.7841C82.5497 22.9741 82.4387 23.7035 81.9108 23.1566C81.6096 22.8446 81.2922 22.5889 81.0011 22.456C80.4668 22.2121 80.3299 21.6716 80.5904 20.8346Z" fill="yellow"></path> <path fill-rule="evenodd" clip-rule="evenodd" d="M83.7878 14.3249C85.0913 15.5956 85.7431 17.1441 85.7431 18.9706C85.7431 21.7103 86.2116 22.8069 85.2578 22.0529C84.3039 21.299 82.9927 20.7895 82.0008 20.7895C81.3396 20.7895 80.7622 20.7895 80.2687 20.7895L79.7422 19.6972C81.1673 19.5328 82.3676 19.6738 83.3429 20.1201C84.8059 20.7895 85.2578 21.6073 85.2578 19.6972C85.2578 17.7871 83.5549 14.4676 82.3037 13.9042C81.4696 13.5287 81.9643 13.5287 83.7878 13.9042V14.3249Z" fill="yellow"></path> <path fill-rule="evenodd" clip-rule="evenodd" d="M78.3295 16.9983C79.039 16.7711 79.8738 16.7711 80.834 16.9983C81.7941 17.2256 82.5405 17.8716 83.073 18.9365C83.0113 19.2523 82.7424 19.1556 82.2662 18.6462C81.7899 18.1369 80.5876 17.9124 78.6593 17.9729L78.3295 16.9983Z" fill="yellow"></path> <path fill-rule="evenodd" clip-rule="evenodd" d="M88.622 13.6226C89.6264 14.8902 90.2661 15.8476 90.541 16.4948C90.9535 17.4655 91.3975 18.3586 90.541 18.3586C89.9701 18.3586 88.4263 18.489 85.9095 18.7496L85.4263 17.5828C87.202 17.5828 88.4984 17.5828 89.3154 17.5828C90.541 17.5828 90.0089 16.794 89.3154 15.9365C88.8531 15.3649 88.0133 14.6914 86.7961 13.9161L88.622 13.6226Z" fill="yellow"></path> <path fill-rule="evenodd" clip-rule="evenodd" d="M88.1039 18.0299C89.1453 19.0151 89.5775 20.6535 89.4004 22.945C89.1348 26.3824 88.9836 26.6394 88.1039 26.2876C87.2241 25.9358 85.2672 24.9439 84.282 22.945C83.6252 21.6125 83.1301 20.6829 82.7968 20.1565L84.282 21.0311C84.8063 22.3492 85.4182 23.3742 86.1179 24.1063C87.1674 25.2045 88.6907 26.6417 88.6907 23.8364C88.6907 21.0311 87.9313 18.0299 87.0246 18.0299" fill="yellow"></path> <path fill-rule="evenodd" clip-rule="evenodd" d="M88.906 13.2219C91.0259 14.0564 92.6131 14.5823 93.6677 14.7993C93.8059 14.8278 94.5997 16.1308 93.4183 15.8069C92.8376 15.6477 92.292 15.5113 91.7812 15.3976C90.2314 15.0526 89.273 14.6607 88.906 14.2219L87.2845 13.2219" fill="yellow"></path> <path fill-rule="evenodd" clip-rule="evenodd" d="M92.565 17.3043C91.926 16.8317 90.8741 15.8716 89.4095 14.4239V15.2519L90.1685 16.6986C91.1099 17.3049 91.8096 17.7494 92.2675 18.0322C93.6528 18.8878 92.6781 17.388 92.565 17.3043Z" fill="yellow"></path> <path fill-rule="evenodd" clip-rule="evenodd" d="M106.592 22.5002C107.305 22.7293 107.968 22.9951 108.58 23.2975C109.095 23.5516 108.648 24.0534 108.925 24.5558C109.142 24.9502 109.671 25.4446 108.925 25.4446C107.229 25.4446 99.5826 24.7648 95.9782 22.5002C93.5752 20.9904 91.6966 19.5358 90.3422 18.1362L90.7867 17.6292C92.6068 19.3085 94.3373 20.6024 95.9782 21.5111C98.4395 22.8741 105.431 24.8296 107.902 24.8296C109.549 24.8296 108.798 24.1907 105.648 22.913L104.565 21.9219L106.592 22.5002Z" fill="yellow"></path> <path fill-rule="evenodd" clip-rule="evenodd" d="M90.4817 18.0299C91.2015 20.5467 92.2919 22.6154 93.7529 24.236C95.2138 25.8566 96.1052 26.8258 96.4271 27.1437C96.8469 27.6967 96.5061 27.5889 95.4048 26.8203C93.7529 25.6673 89.9589 21.2719 89.6365 18.0299" fill="yellow"></path> <path fill-rule="evenodd" clip-rule="evenodd" d="M96.7745 22.6834C97.8099 24.7953 99.1968 26.7776 100.935 28.6303C102.674 30.483 104.428 32.0223 106.198 33.2482C106.792 33.6182 106.629 33.8937 105.708 34.0745C104.327 34.3458 97.5072 33.6437 93.2479 28.6303C90.4083 25.288 88.8413 22.4223 88.547 20.0332L89.5096 20.7933C90.8516 23.6328 92.0977 25.7279 93.2479 27.0788C94.3981 28.4297 96.2816 29.8995 98.8984 31.4883C102.79 33.1526 104.276 33.4646 103.358 32.4243C101.981 30.8638 97.0741 27.059 95.8209 22.2536" fill="yellow"></path> <path fill-rule="evenodd" clip-rule="evenodd" d="M88.9647 24.4405C89.819 25.0284 90.4836 26.3015 90.9585 28.2599C91.4334 30.2183 91.5165 32.4197 91.2077 34.8642L89.4363 34.2934C90.4891 30.5987 90.2294 27.6487 88.657 25.4432" fill="yellow"></path> <path fill-rule="evenodd" clip-rule="evenodd" d="M90.9696 29.2484C92.1613 32.0903 93.5014 34.2863 94.9901 35.8363C97.2232 38.1613 96.7465 38.4125 95.8683 37.9222C94.9901 37.432 92.3076 35.4346 90.9696 31.1953" fill="yellow"></path> <path fill-rule="evenodd" clip-rule="evenodd" d="M98.7982 36.784C98.4135 35.9659 97.9829 35.1955 97.5063 34.4728C96.1049 32.3475 94.6088 30.2054 93.018 28.0465L95.076 29.5213L96.5195 30.2584L96.1343 30.5977C97.7855 33.2128 98.876 35.1168 99.4057 36.3097" fill="yellow"></path> <path fill-rule="evenodd" clip-rule="evenodd" d="M100.972 36.31C99.4843 35.3743 98.1673 34.4241 97.4507 33.1706C96.5989 31.6806 96.4123 31.6806 96.8909 33.1706L98.5247 35.6009C99.0204 36.0389 99.4471 36.3593 99.8048 36.5622C100.204 36.7887 102.136 37.0426 100.972 36.31Z" fill="yellow"></path> <path fill-rule="evenodd" clip-rule="evenodd" d="M103.204 34.0565C105.562 35.9628 107.258 37.4126 108.292 38.4059C109.326 39.3992 109.938 40.1863 110.129 40.7671L109.261 41.0054C107.807 38.6721 105.286 36.3558 101.7 34.0565" fill="yellow"></path> <path fill-rule="evenodd" clip-rule="evenodd" d="M98.5928 23.6392C100.129 25.6172 101.771 27.0806 103.519 28.0293C106.141 29.4523 108.196 30.2255 106.99 30.2255C105.783 30.2255 100.449 27.6456 97.4931 23.6392" fill="yellow"></path> <path fill-rule="evenodd" clip-rule="evenodd" d="M104.859 24.6796C107.328 26.7902 109.186 28.1805 110.433 28.8507C110.473 28.8724 111.431 31.3687 110.926 31.5798C109.097 32.3437 103.073 31.3116 99.7849 27.9927C96.9869 25.1686 96.4406 24.4162 98.146 25.7356C100.545 27.8034 102.782 29.1941 104.859 29.9077C106.812 30.5789 109.019 31.0485 110.618 31.3054C111.569 31.4582 111.096 30.2243 110.378 29.8717C107.713 28.5651 103.835 26.1675 102.65 24.4405" fill="yellow"></path> <path fill-rule="evenodd" clip-rule="evenodd" d="M106.251 25.0847C107.437 25.6983 108.368 26.1011 109.046 26.2933C109.608 26.4526 108.686 25.7908 108.543 24.8567C108.359 23.6656 108.831 22.1154 108.647 22.1666C108.326 22.2556 107.785 22.4867 107.024 22.8599L106.251 22.485C107.288 21.8593 108.052 21.4858 108.543 21.3646C108.73 21.3182 108.583 22.4613 108.79 24.2638C108.796 24.3148 109.215 25.4605 109.219 25.5112C109.272 26.1509 110.151 26.5622 109.832 27.014C109.777 27.0914 109.678 27.1398 109.534 27.1592C109.145 27.2116 107.828 26.8121 105.582 25.9608L104.945 24.5789" fill="yellow"></path> <path fill-rule="evenodd" clip-rule="evenodd" d="M110.593 31.6342C110.811 32.2804 110.633 32.5213 110.06 32.3569C108.867 32.015 107.495 31.6747 105.943 31.3359V30.8511" fill="yellow"></path> <path fill-rule="evenodd" clip-rule="evenodd" d="M109.526 36.4851C108.656 36.3653 107.913 36.1904 107.414 35.945C105.899 35.2006 104.572 34.7047 103.431 34.4571L105.364 35.945C106.883 36.7276 108.267 37.1998 109.516 37.3615" fill="yellow"></path> <rect width="49.4797" height="61.0533" fill="yellow" fill-opacity="0" transform="translate(42.3997 22.012)"></rect> <path fill-rule="evenodd" clip-rule="evenodd" d="M43.4482 26.534C43.4334 26.5163 43.4189 26.5022 43.4053 26.4923C43.4274 26.5094 43.4495 26.5266 43.4715 26.5438L43.4482 26.534ZM44.0862 27.0548C46.3871 29.0855 47.9326 31.849 48.7201 35.3012C50.0734 41.2342 49.543 47.3239 47.0106 50.7166C46.2552 51.7287 45.5695 52.5041 44.8553 53.1937C44.5736 53.4657 43.7271 54.2242 43.5919 54.3634C43.387 54.5741 43.2903 54.7235 43.2086 54.9612C42.7413 56.3204 43.0831 64.7902 43.8448 66.6403C44.7036 68.7259 50.6881 73.7695 54.2688 75.169C57.7502 76.5297 65.256 80.6003 67.4582 82.108C67.5145 82.1465 67.5918 82.2004 67.6768 82.26L67.7232 82.1907L67.9431 82.0389C67.9815 82.0123 67.9815 82.0123 68.0212 81.9851C69.5959 80.9071 71.1215 79.8992 72.9215 78.7901C75.6849 77.0874 78.1046 75.7787 80.0102 75.0339C83.5908 73.6344 89.5754 68.5909 90.4341 66.5052C91.1959 64.6552 91.5377 56.1854 91.0703 54.8261C90.9886 54.5885 90.892 54.4391 90.6871 54.2283C90.5518 54.0892 89.7054 53.3306 89.4237 53.0586C88.7095 52.3691 88.0237 51.5937 87.2683 50.5816C84.7359 47.1889 84.2056 41.0992 85.5589 35.1662C86.3442 31.7231 87.8837 28.9651 90.1942 26.9211C86.96 24.8026 84.878 23.442 83.9505 22.8409C83.6493 22.6457 83.5645 22.6042 83.6501 22.6098C83.7671 22.6175 83.651 22.6696 83.1899 22.9498C82.9467 23.0982 82.783 23.1981 82.6514 23.2778C82.4092 23.4245 82.1856 23.5576 81.9496 23.6951C81.3415 24.049 80.7017 24.401 79.9774 24.7749C77.0811 26.2701 72.5349 27.1825 66.2883 27.564L66.0856 27.5618C60.8136 27.1201 56.8983 26.2505 54.3015 24.91C53.5772 24.5361 52.9375 24.1841 52.3294 23.8301C52.0934 23.6927 51.8697 23.5595 51.6276 23.4129C51.496 23.3332 51.3322 23.2332 51.089 23.0848C50.628 22.8046 50.5118 22.7526 50.6289 22.7449C50.7144 22.7392 50.6297 22.7807 50.3285 22.9759C49.4033 23.5755 47.3294 24.9308 44.0862 27.0548ZM68.2058 82.6344C68.2284 82.6507 68.2477 82.6644 68.2625 82.6751C68.2306 82.6496 68.1907 82.6226 68.2283 82.6465C68.2257 82.6452 68.2162 82.6398 68.2058 82.6344ZM68.2283 82.6465C68.232 82.6489 68.2364 82.6517 68.2416 82.655C68.2393 82.6536 68.2369 82.6521 68.2345 82.6506L68.2283 82.6465ZM67.2357 82.7763C67.2335 82.7783 67.2315 82.7802 67.2299 82.7819C67.2348 82.7769 67.2422 82.7689 67.2517 82.7585L67.2357 82.7763ZM67.604 82.3686C67.623 82.3476 67.6389 82.3301 67.6505 82.3175C67.5961 82.3811 67.5961 82.3811 67.5745 82.4126L67.604 82.3686ZM90.8943 26.3418C90.8962 26.3404 90.898 26.3389 90.8998 26.3375C90.898 26.3389 90.8962 26.3403 90.8943 26.3417L90.8943 26.3418Z" fill="yellow" stroke="#FF6B00" stroke-width="1.77503"></path> <g class="logo_bg"> <path fill-rule="evenodd" clip-rule="evenodd" d="M43.0799 26.998C45.6214 28.9785 47.3075 31.8016 48.1362 35.4345C49.4542 41.213 48.9387 47.1322 46.5307 50.3583C45.7949 51.3441 45.1306 52.0953 44.4393 52.7627C44.1715 53.0213 43.3152 53.7887 43.1625 53.9458C42.899 54.2168 42.7543 54.4405 42.6423 54.7664C42.1268 56.2657 42.4746 64.8857 43.291 66.8684C44.2192 69.1228 50.3299 74.2727 54.0508 75.727C57.4877 77.0703 64.9537 81.1194 67.12 82.6024C67.2739 82.7078 67.5979 82.937 67.7788 83.0652C67.8471 82.9893 67.9478 82.8796 68.0918 82.7225C68.0723 82.7454 68.0723 82.7454 68.0721 82.7461L68.2833 82.5319C68.3208 82.506 68.3208 82.506 68.3595 82.4795C69.927 81.4064 71.4455 80.4033 73.2357 79.3002C75.9709 77.6148 78.3639 76.3206 80.2282 75.5919C83.9491 74.1376 90.0597 68.9878 90.988 66.7334C91.8044 64.7506 92.1522 56.1306 91.6367 54.6313C91.5247 54.3054 91.38 54.0817 91.1165 53.8107C90.9638 53.6536 90.1075 52.8862 89.8397 52.6276C89.1484 51.9603 88.4841 51.2091 87.7483 50.2232C85.3403 46.9972 84.8247 41.078 86.1428 35.2994C86.9699 31.6735 88.6511 28.8543 91.1991 26.8633C87.5762 24.4897 85.268 22.981 84.2762 22.3382C83.8873 22.0862 83.7433 22.0156 83.6895 22.0121C83.6317 22.0083 83.4568 22.0866 82.8789 22.4378C82.6342 22.5871 82.4717 22.6864 82.3412 22.7654C82.1018 22.9104 81.8811 23.0418 81.6483 23.1773C81.0488 23.5263 80.4178 23.8735 79.7027 24.2426C76.8964 25.6913 72.4225 26.5892 66.2518 26.9661L66.1356 26.9648C60.9351 26.5291 57.0893 25.675 54.5763 24.3777C53.8611 24.0085 53.2302 23.6614 52.6307 23.3124C52.3979 23.1768 52.1772 23.0454 51.9378 22.9004C51.8073 22.8214 51.6447 22.7222 51.4 22.5729C50.8222 22.2217 50.6473 22.1433 50.5895 22.1471C50.5357 22.1507 50.3916 22.2212 50.0028 22.4732C49.0124 23.115 46.7096 24.6202 43.0799 26.998Z" stroke="yellow" stroke-width="1.01748"></path> </g> <rect width="39.5405" height="19.134" fill="yellow" fill-opacity="0" transform="translate(47.7297 42.8557)"></rect> <g class="logo_name"> <path d="M87.2702 57.5706H85.656V61.8346H84.4569V57.5706H82.8427V56.3611H87.2548V57.5706H87.2702ZM74.2335 61.9897C73.8492 61.9897 73.4648 61.9122 73.1113 61.7571C72.7577 61.602 72.4656 61.4005 72.2042 61.1369C71.9429 60.8733 71.743 60.5632 71.5893 60.222C71.4355 59.8654 71.3587 59.4933 71.3587 59.0901C71.3587 58.7025 71.4355 58.3303 71.5893 57.9582C71.6662 57.7876 71.7584 57.6326 71.8506 57.4775C71.9582 57.3225 72.0659 57.1829 72.2042 57.0434C72.3426 56.9038 72.4809 56.7798 72.6347 56.6867C72.7884 56.5782 72.9422 56.5007 73.1113 56.4231C73.4648 56.2681 73.8338 56.1906 74.2335 56.1906C74.6179 56.1906 74.9868 56.2681 75.3558 56.4231C75.5249 56.5007 75.6786 56.5937 75.8324 56.6867C75.9861 56.7953 76.1245 56.9038 76.2628 57.0434C76.4012 57.1829 76.5242 57.3225 76.6164 57.4775C76.724 57.6326 76.8009 57.7876 76.8778 57.9582C77.0315 58.3303 77.1084 58.7025 77.1084 59.0901C77.1084 59.4778 77.0315 59.8499 76.8778 60.222C76.8009 60.3926 76.7086 60.5477 76.6164 60.7027C76.5088 60.8578 76.4012 60.9973 76.2628 61.1369C76.1398 61.2764 75.9861 61.385 75.8324 61.4935C75.6786 61.602 75.5249 61.6796 75.3558 61.7571C74.9868 61.9122 74.6179 61.9897 74.2335 61.9897ZM74.2335 57.4155C74.0029 57.4155 73.7877 57.462 73.5878 57.5551C73.388 57.6481 73.2035 57.7721 73.0498 57.9117C72.896 58.0667 72.7884 58.2373 72.6962 58.4389C72.6039 58.6405 72.5578 58.8575 72.5578 59.0901C72.5578 59.3227 72.6039 59.5398 72.6962 59.7414C72.7884 59.9429 72.9114 60.129 73.0498 60.2685C73.2035 60.4236 73.3726 60.5477 73.5878 60.6252C73.7877 60.7182 74.0029 60.7647 74.2335 60.7647C74.4641 60.7647 74.6793 60.7182 74.8792 60.6252C75.0791 60.5321 75.2635 60.4081 75.4173 60.2685C75.571 60.1135 75.694 59.9429 75.7709 59.7414C75.8631 59.5398 75.9092 59.3227 75.9092 59.0901C75.9092 58.8575 75.8631 58.6405 75.7709 58.4389C75.6786 58.2373 75.5556 58.0512 75.4173 57.9117C75.2635 57.7566 75.0944 57.6481 74.8792 57.5551C74.6793 57.462 74.4641 57.4155 74.2335 57.4155ZM80.0139 61.9742C79.4451 61.9742 78.9532 61.8501 78.5535 61.6175C78.1999 61.4005 77.9231 61.1214 77.7387 60.7492C77.6618 60.5942 77.6003 60.4391 77.5542 60.2996C77.5081 60.1445 77.4773 60.005 77.4619 59.8654C77.4466 59.7258 77.4312 59.6173 77.4312 59.4933C77.4312 59.3847 77.4312 59.3072 77.4312 59.2452V56.3611H78.6303V59.2452C78.6303 59.7879 78.7379 60.1755 78.9685 60.4081C79.1838 60.6407 79.5527 60.7647 80.0447 60.7647C80.5366 60.7647 80.9056 60.6407 81.1208 60.4081C81.3361 60.1755 81.459 59.7879 81.459 59.2452V56.3611H82.6582V59.2452C82.6582 59.3072 82.6582 59.3847 82.6582 59.4933C82.6582 59.6018 82.6428 59.7258 82.6274 59.8654C82.6121 60.005 82.5813 60.1445 82.5352 60.2996C82.4891 60.4546 82.4276 60.6097 82.3507 60.7492C82.1662 61.1059 81.8895 61.4005 81.5359 61.6175C81.0747 61.8656 80.5828 61.9742 80.0139 61.9742ZM56.2619 56.3611L54.4018 61.8346H53.6638H53.2334L52.0035 58.4079L50.7736 61.8346H50.3278H49.6052L47.7297 56.3611H48.9903L50.1894 59.8809L51.4654 56.3611H52.5262L53.8022 59.8809L55.0013 56.3611H56.2619ZM58.691 61.9897C59.0753 61.9897 59.4443 61.9122 59.8132 61.7571C59.9823 61.6796 60.1361 61.5865 60.2898 61.4935C60.4435 61.385 60.5819 61.2764 60.7202 61.1369C60.8586 60.9973 60.9816 60.8578 61.0738 60.7027C61.1815 60.5477 61.2583 60.3926 61.3352 60.222C61.4889 59.8654 61.5658 59.4933 61.5658 59.0901C61.5658 58.7025 61.4889 58.3303 61.3352 57.9582C61.2583 57.7876 61.1661 57.6326 61.0738 57.4775C60.9662 57.3225 60.8586 57.1829 60.7202 57.0434C60.5819 56.9038 60.4435 56.7798 60.2898 56.6867C60.1361 56.5782 59.9823 56.5007 59.8132 56.4231C59.4443 56.2681 59.0753 56.1906 58.691 56.1906C58.3066 56.1906 57.9377 56.2681 57.5687 56.4231C57.3996 56.5007 57.2458 56.5937 57.0921 56.6867C56.9384 56.7953 56.8 56.9038 56.6617 57.0434C56.5233 57.1829 56.4157 57.3225 56.3081 57.4775C56.2005 57.6326 56.1236 57.7876 56.0467 57.9582C55.893 58.3303 55.8161 58.7025 55.8161 59.0901C55.8161 59.4778 55.893 59.8499 56.0467 60.222C56.2005 60.5787 56.4003 60.8733 56.6617 61.1369C56.923 61.4005 57.2305 61.602 57.5687 61.7571C57.9377 61.9122 58.3066 61.9897 58.691 61.9897ZM58.691 57.4155C58.9216 57.4155 59.1368 57.462 59.3366 57.5551C59.5365 57.6481 59.721 57.7721 59.8593 57.9117C60.0131 58.0667 60.1361 58.2373 60.2129 58.4389C60.3052 58.6405 60.3513 58.8575 60.3513 59.0901C60.3513 59.3227 60.3052 59.5398 60.2129 59.7414C60.1207 59.9429 59.9977 60.129 59.8593 60.2685C59.7056 60.4236 59.5365 60.5477 59.3366 60.6252C59.1368 60.7182 58.9216 60.7647 58.691 60.7647C58.4604 60.7647 58.2451 60.7182 58.0453 60.6252C57.8454 60.5321 57.6609 60.4081 57.5226 60.2685C57.3688 60.1135 57.2612 59.9429 57.169 59.7414C57.0767 59.5398 57.0306 59.3227 57.0306 59.0901C57.0306 58.8575 57.0767 58.6405 57.169 58.4389C57.2612 58.2373 57.3842 58.0512 57.5226 57.9117C57.6763 57.7566 57.8454 57.6481 58.0453 57.5551C58.2451 57.462 58.4604 57.4155 58.691 57.4155ZM66.0702 61.8346H65.5475H64.6097L63.6105 60.3926H62.9955V61.8346H61.7964V56.3611H63.7949C64.1024 56.3611 64.3791 56.4076 64.6405 56.4852C64.9018 56.5627 65.1171 56.6712 65.3169 56.8263C65.4245 56.9193 65.5168 57.0124 65.609 57.1209C65.7013 57.2294 65.7627 57.338 65.8242 57.462C65.9472 57.7256 66.0087 58.0047 66.0087 58.2993C66.0087 58.5939 65.9626 58.8575 65.855 59.1211C65.7627 59.3692 65.609 59.5863 65.4092 59.7879C65.2554 59.9429 65.0863 60.067 64.9018 60.16L66.0702 61.8346ZM62.9955 59.1987H63.8103C64.1485 59.2142 64.3945 59.1211 64.579 58.9351C64.7327 58.78 64.825 58.5629 64.825 58.2993C64.825 57.8031 64.4867 57.5551 63.8103 57.5551H62.9955V59.1987ZM69.1295 58.7025L71.866 56.3611H70.9436H70.0212L67.5614 58.4544V56.3611H66.3623V61.8346H67.0695H67.5461V60.036L68.2071 59.4778L70.5131 61.8346H71.7123H72.1889L69.1295 58.7025Z" fill="gray"></path> <path d="M80.8442 44.1736H79.2146V48.4842H78.0155V44.1736H76.3859V42.9642H80.8442V44.1736ZM56.4773 48.5617H56.385C56.1698 48.5617 55.9546 48.5307 55.724 48.4842C55.4934 48.4377 55.2935 48.3602 55.0937 48.2826C54.8784 48.1896 54.694 48.0656 54.5402 47.926C54.3865 47.7865 54.2481 47.6469 54.1713 47.4919L55.2013 46.8871C55.232 46.9492 55.2935 46.9957 55.3704 47.0577C55.4473 47.1197 55.5395 47.1662 55.6471 47.2128C55.7547 47.2593 55.8777 47.3058 56.0007 47.3213C56.1237 47.3523 56.2621 47.3678 56.385 47.3678H56.4004H56.4158C56.5234 47.3833 56.6618 47.3678 56.8155 47.3368C56.9692 47.3058 57.123 47.2593 57.2767 47.1817C57.5381 47.0577 57.6764 46.9026 57.7072 46.7011C57.7072 46.639 57.7072 46.5925 57.6918 46.5615C57.6764 46.5305 57.661 46.4995 57.6303 46.484C57.5381 46.3909 57.4151 46.3134 57.246 46.2669C57.0307 46.2049 56.7694 46.1584 56.4773 46.1584C56.4004 46.1584 56.2774 46.1584 56.1391 46.1429C55.9853 46.1274 55.8316 46.1118 55.6471 46.0653C55.2013 45.9568 54.8631 45.7862 54.6171 45.5226C54.3404 45.2435 54.2174 44.8869 54.2481 44.4682C54.2635 44.2667 54.3096 44.0806 54.3865 43.91C54.4634 43.7395 54.571 43.5844 54.7247 43.4449C54.9707 43.2123 55.2782 43.0417 55.6471 42.9487C55.8931 42.8867 56.1391 42.8557 56.4158 42.8557C56.6771 42.8557 56.9385 42.8867 57.1998 42.9487C57.4919 43.0262 57.7533 43.1192 57.9685 43.2588C58.1837 43.3984 58.3528 43.5534 58.4758 43.7395L57.4766 44.3752C57.4458 44.3287 57.3843 44.2822 57.2921 44.2202C57.1998 44.1581 57.0768 44.1116 56.9231 44.0806C56.7694 44.0496 56.6003 44.0186 56.4312 44.0186C56.2621 44.0186 56.1083 44.0341 55.97 44.0651C55.847 44.0961 55.7547 44.1271 55.6779 44.1736C55.6164 44.2202 55.5549 44.2667 55.5241 44.3132C55.4934 44.3597 55.4626 44.4062 55.4626 44.4372C55.4473 44.4837 55.4473 44.5148 55.4473 44.5303C55.4473 44.5768 55.4473 44.6233 55.4626 44.6543C55.478 44.6853 55.4934 44.7008 55.5088 44.7163C55.5856 44.7939 55.7086 44.8404 55.8931 44.8869C56.0776 44.9334 56.2774 44.9489 56.508 44.9489C56.9692 44.9489 57.3689 45.0109 57.7072 45.135C58.0608 45.259 58.3375 45.4296 58.5527 45.6622C58.6911 45.8172 58.7987 45.9878 58.8602 46.1739C58.9217 46.3599 58.9524 46.5615 58.9217 46.7786C58.8909 47.0887 58.7833 47.3678 58.5988 47.6159C58.4143 47.864 58.1684 48.0656 57.8455 48.2206C57.6457 48.3137 57.4304 48.3912 57.1998 48.4377C56.9077 48.5307 56.6925 48.5617 56.4773 48.5617ZM63.3646 44.1736H61.735V48.4842H60.5359V44.1736H58.9063V42.9642H63.3646V44.1736ZM68.0689 48.4842H67.5462H66.593L65.5937 47.0267H64.9634V48.4842H63.7643V42.9642H65.7782C66.0857 42.9642 66.3778 43.0107 66.6391 43.0882C66.9005 43.1658 67.1311 43.2898 67.3156 43.4294C67.4232 43.5224 67.5154 43.6154 67.6077 43.724C67.6999 43.8325 67.7614 43.9411 67.8229 44.0651C67.9459 44.3287 68.0074 44.6078 68.0074 44.9179C68.0074 45.2125 67.9613 45.4916 67.8536 45.7397C67.7614 45.9878 67.6077 46.2204 67.4078 46.4065C67.2541 46.5615 67.085 46.6856 66.8851 46.7786L68.0689 48.4842ZM64.9634 45.8172H65.7782C66.1164 45.8327 66.3778 45.7397 66.5623 45.5536C66.716 45.3986 66.8082 45.1815 66.8082 44.9179C66.8082 44.4217 66.47 44.1736 65.7782 44.1736H64.9634V45.8172ZM69.5755 44.1736V44.9954H71.7892V46.2049H69.5755V47.2593H71.8661V48.4687H68.361V42.9642H71.8661V44.1736H69.5755ZM73.7417 44.1736V44.9954H75.9555V46.2049H73.7417V47.2593H76.0323V48.4687H72.5272V42.9642H76.0323V44.1736H73.7417Z" fill="gray"></path> </g> </svg>